<?xml version="1.0" encoding="UTF-8"?>
<svg width="343px" height="64px" viewBox="0 0 343 64" version="1.1" xmlns="http://www.w3.org/2000/svg" xmlns:xlink="http://www.w3.org/1999/xlink">
    <!-- Generator: Sketch 48.2 (47327) - http://www.bohemiancoding.com/sketch -->
    <title>Logo/Full/Color</title>
    <desc>Created with Sketch.</desc>
    <defs>
        <polygon id="path-1" points="0 63.0284 342.194 63.0284 342.194 0.0004 0 0.0004"></polygon>
    </defs>
    <g id="Logos" stroke="none" stroke-width="1" fill="none" fill-rule="evenodd">
        <g id="Logo/Full/Color">
            <g id="Page-1">
                <path d="M87.5566,25.5433 L87.5566,37.6553 L94.9116,37.6553 C99.1786,37.6553 101.3356,35.0563 101.3356,31.4773 C101.3356,27.9463 99.1786,25.5433 94.9116,25.5433 L87.5566,25.5433 Z M80.9856,20.2473 L95.5006,20.2473 C103.5426,20.2473 108.0046,24.8083 108.0046,31.3793 C108.0046,38.0473 103.5426,42.9503 95.5006,42.9503 L87.5566,42.9503 L87.5566,53.9843 L80.9856,53.9843 L80.9856,20.2473 Z" id="Fill-1" fill="#404040"></path>
                <path d="M121.0508,49.7679 C124.7778,49.7679 127.1798,46.7769 127.1798,42.0189 C127.1798,37.1649 124.7778,34.3209 121.0508,34.3209 C117.3238,34.3209 114.8718,37.2639 114.8718,42.0189 C114.8718,46.7769 117.3238,49.7679 121.0508,49.7679 M121.0508,29.4659 C128.6518,29.4659 133.7018,34.0759 133.7018,42.0189 C133.7018,49.8659 128.3578,54.5729 121.0508,54.5729 C113.4008,54.5729 108.3498,49.9639 108.3498,42.0189 C108.3498,34.1739 113.6958,29.4659 121.0508,29.4659" id="Fill-3" fill="#404040"></path>
                <path d="M149.0527,34.2723 C145.5717,34.2723 143.0707,37.0673 142.9717,41.6763 L142.9717,42.0193 C142.9717,46.8253 145.4737,49.7683 149.0527,49.7683 C152.5837,49.7683 155.0357,46.6293 155.0357,41.8233 C155.0357,37.0183 152.5837,34.2723 149.0527,34.2723 Z M142.9717,62.9963 L136.6467,62.9963 L136.6467,30.0543 L142.6777,30.0543 L142.6777,33.4863 L142.8737,33.4863 C144.2477,30.8393 147.0427,29.4663 150.7197,29.4663 C156.7517,29.4663 161.5087,33.7823 161.5087,41.8233 C161.5087,49.8663 156.5067,54.5723 150.3277,54.5723 C146.8467,54.5723 144.2477,53.2003 142.8737,50.5523 L142.6777,50.5523 C142.9717,53.6903 142.9717,56.4863 142.9717,58.1043 L142.9717,62.9963 Z" id="Fill-5" fill="#404040"></path>
                <path d="M164.5508,30.054 L170.8768,30.054 L170.8768,43.785 C170.8768,48.198 172.7398,49.67 175.5348,49.67 C178.6248,49.67 180.9288,47.12 180.9288,42.705 L180.9288,30.054 L187.2058,30.054 L187.2058,53.985 L181.2238,53.985 L181.2238,50.552 L181.0268,50.552 C179.6548,53.2 177.1038,54.573 173.7698,54.573 C168.8658,54.573 164.5508,52.023 164.5508,44.57 L164.5508,30.054 Z" id="Fill-7" fill="#404040"></path>
                <mask id="mask-2" fill="white">
                    <use xlink:href="#path-1"></use>
                </mask>
                <g id="Clip-10"></g>
                <polygon id="Fill-9" fill="#404040" mask="url(#mask-2)" points="191.032 53.9854 197.358 53.9854 197.358 18.0904 191.032 18.0904"></polygon>
                <path d="M216.5806,44.3245 L216.5806,42.2155 C216.1396,42.8525 215.3066,43.1485 214.2276,43.3445 L210.5496,43.9325 C207.9996,44.3735 207.0186,45.5005 207.0186,47.1685 C207.0186,49.0315 208.2936,50.1595 210.7466,50.1595 C213.7376,50.1595 216.5806,48.3455 216.5806,44.3245 M208.9316,40.4995 L213.5406,39.8125 C216.0906,39.4205 216.5806,39.0285 216.5806,37.9005 C216.5316,35.5465 215.2576,33.8805 212.3146,33.8805 C209.3726,33.8805 207.8036,35.3995 207.6076,37.8025 L201.7236,37.8025 C202.0656,32.4575 206.3816,29.4665 212.3146,29.4665 C219.3756,29.4665 222.9066,32.5065 222.9066,38.1945 L222.9066,53.9845 L216.8756,53.9845 L216.8756,51.1405 L216.5806,51.1405 C215.1586,53.2985 212.5116,54.5725 208.9316,54.5725 C203.5866,54.5725 200.7906,51.8265 200.7906,47.8055 C200.7906,43.7855 203.2436,41.3825 208.9316,40.4995" id="Fill-11" fill="#404040" mask="url(#mask-2)"></path>
                <path d="M226.6851,30.054 L232.7161,30.054 L232.7161,33.684 L232.8141,33.684 C233.9921,31.134 236.1001,29.466 239.1891,29.466 C240.1701,29.466 241.2981,29.613 242.5241,30.448 L241.2481,35.89 C240.1701,35.35 239.2381,35.105 238.3071,35.105 C234.7271,35.105 233.0111,38.342 233.0111,42.558 L233.0111,53.985 L226.6851,53.985 L226.6851,30.054 Z" id="Fill-12" fill="#404040" mask="url(#mask-2)"></path>
                <path d="M251.793,25.5433 L251.793,37.6553 L259.148,37.6553 C263.415,37.6553 265.573,35.0563 265.573,31.4773 C265.573,27.9463 263.415,25.5433 259.148,25.5433 L251.793,25.5433 Z M245.222,20.2473 L259.737,20.2473 C267.779,20.2473 272.242,24.8083 272.242,31.3793 C272.242,38.0473 267.779,42.9503 259.737,42.9503 L251.793,42.9503 L251.793,53.9843 L245.222,53.9843 L245.222,20.2473 Z" id="Fill-13" fill="#404040" mask="url(#mask-2)"></path>
                <path d="M288.1797,44.3245 L288.1797,42.2155 C287.7387,42.8525 286.9057,43.1485 285.8257,43.3445 L282.1487,43.9325 C279.5987,44.3735 278.6177,45.5005 278.6177,47.1685 C278.6177,49.0315 279.8927,50.1595 282.3447,50.1595 C285.3357,50.1595 288.1797,48.3455 288.1797,44.3245 M280.5307,40.4995 L285.1387,39.8125 C287.6897,39.4205 288.1797,39.0285 288.1797,37.9005 C288.1307,35.5465 286.8567,33.8805 283.9137,33.8805 C280.9717,33.8805 279.4027,35.3995 279.2067,37.8025 L273.3217,37.8025 C273.6647,32.4575 277.9807,29.4665 283.9137,29.4665 C290.9747,29.4665 294.5057,32.5065 294.5057,38.1945 L294.5057,53.9845 L288.4747,53.9845 L288.4747,51.1405 L288.1797,51.1405 C286.7577,53.2985 284.1097,54.5725 280.5307,54.5725 C275.1847,54.5725 272.3897,51.8265 272.3897,47.8055 C272.3897,43.7855 274.8427,41.3825 280.5307,40.4995" id="Fill-14" fill="#404040" mask="url(#mask-2)"></path>
                <path d="M325.8638,47.12 C325.8638,49.572 328.4138,50.405 330.8658,50.405 C334.1518,50.405 335.9178,49.327 335.9178,47.414 C335.9178,45.746 334.6908,45.109 332.3848,44.717 L328.0218,44.031 C323.9038,43.393 320.5688,41.774 320.5688,37.264 C320.5688,32.212 325.0798,29.466 331.1118,29.466 C337.1428,29.466 341.5558,31.82 341.5558,36.724 L335.7208,36.724 C335.7208,34.517 333.6128,33.635 331.0618,33.635 C328.4628,33.635 326.6498,34.664 326.6498,36.429 C326.6498,37.95 327.6298,38.685 330.4248,39.126 L334.7398,39.812 C338.6138,40.451 342.1948,41.971 342.1948,46.58 C342.1948,51.974 337.4858,54.573 330.8658,54.573 C324.4908,54.573 319.9318,52.219 319.9318,47.12 L325.8638,47.12 Z" id="Fill-15" fill="#404040" mask="url(#mask-2)"></path>
                <path d="M295.0156,30.0887 L302.0986,30.0887 L307.9476,47.3217 L313.5396,30.0887 L319.9866,30.0887 L311.1986,54.7137 C309.2846,60.2797 307.1826,62.9957 300.9916,62.9957 L297.8526,63.0287 L297.8526,58.0027 L299.6086,57.9407 C304.3676,57.9407 304.4306,54.0907 304.4306,54.0907 L295.0156,30.0887 Z" id="Fill-16" fill="#404040" mask="url(#mask-2)"></path>
                <polygon id="Fill-17" fill="#17D69B" mask="url(#mask-2)" points="0 -0.0002 0 62.9998 17.869 62.9998 17.869 53.9998 8.935 53.9998 8.935 8.9998 17.869 8.9998 17.869 -0.0002"></polygon>
                <polygon id="Fill-18" fill="#17D69B" mask="url(#mask-2)" points="44.9521 0.0286 44.9521 9.0226 53.9281 9.0226 53.9281 36.0056 44.9521 36.0056 44.9521 44.9996 62.9521 44.9996 62.9521 0.0286"></polygon>
            </g>
        </g>
    </g>
</svg>