<?xml version="1.0" encoding="UTF-8" standalone="no"?>
<svg width="22px" height="22px" viewBox="0 0 22 22" version="1.1" xmlns="http://www.w3.org/2000/svg" xmlns:xlink="http://www.w3.org/1999/xlink">
    <!-- Generator: Sketch 46.1 (44463) - http://www.bohemiancoding.com/sketch -->
    <title>Link White</title>
    <desc>Created with Sketch.</desc>
    <defs></defs>
    <g id="Symbols" stroke="none" stroke-width="1" fill="none" fill-rule="evenodd">
        <g id="Icons/Link-White" fill="#FFFFFF">
            <g id="Link-White">
                <path d="M2.5142,15.2275 L3.9282,13.8135 L3.2212,13.1065 C2.8312,12.7165 2.8312,12.0825 3.2212,11.6925 L11.7072,3.2075 C11.8952,3.0185 12.1462,2.9145 12.4132,2.9145 C12.6812,2.9145 12.9312,3.0185 13.1212,3.2075 L13.8272,3.9145 L15.2422,2.5005 L14.5352,1.7935 C13.4022,0.6605 11.4242,0.6605 10.2922,1.7935 L1.8072,10.2785 C0.6372,11.4485 0.6372,13.3515 1.8072,14.5205 L2.5142,15.2275 Z" id="Fill-1307"></path>
                <path d="M20.1919,7.4512 L19.4849,6.7442 L18.0699,8.1592 L18.7779,8.8662 C18.9669,9.0552 19.0699,9.3052 19.0699,9.5732 C19.0699,9.8382 18.9659,10.0902 18.7779,10.2782 L10.2929,18.7642 C9.9149,19.1412 9.2559,19.1412 8.8779,18.7642 L8.1709,18.0572 L6.7569,19.4712 L7.4639,20.1782 C8.0309,20.7452 8.7839,21.0572 9.5849,21.0572 C10.3869,21.0572 11.1399,20.7452 11.7069,20.1782 L20.1919,11.6922 C20.7579,11.1262 21.0699,10.3722 21.0699,9.5732 C21.0699,8.7712 20.7579,8.0172 20.1919,7.4512" id="Fill-1308"></path>
                <polygon id="Fill-1309" points="13.1206 10.2788 11.7066 8.8648 18.7776 1.7938 20.1916 3.2078"></polygon>
                <polygon id="Fill-1310" points="3.2212 20.1777 1.8072 18.7637 8.8782 11.6927 10.2922 13.1067"></polygon>
            </g>
        </g>
    </g>
</svg>