<svg xmlns="http://www.w3.org/2000/svg" width="22" height="22" viewBox="0 0 22 22">
    <g fill="#FF517C" fill-rule="evenodd">
        <path d="M8.238 17.667l.387.817A2.614 2.614 0 0 0 11 20a2.613 2.613 0 0 0 2.374-1.515l.387-.818.852.304a2.664 2.664 0 0 0 2.751-.606 2.612 2.612 0 0 0 .607-2.75l-.304-.852.817-.388A2.614 2.614 0 0 0 20 11a2.61 2.61 0 0 0-1.515-2.373l-.818-.387.304-.853a2.611 2.611 0 0 0-.608-2.751c-.707-.708-1.801-.945-2.75-.607l-.852.304-.387-.818A2.615 2.615 0 0 0 11 2a2.614 2.614 0 0 0-2.374 1.515l-.388.818-.852-.304a2.664 2.664 0 0 0-2.751.607 2.616 2.616 0 0 0-.606 2.752l.303.852-.818.387A2.61 2.61 0 0 0 2 11c0 1.021.58 1.932 1.515 2.375l.817.388-.303.852a2.612 2.612 0 0 0 .607 2.75 2.663 2.663 0 0 0 2.75.606l.852-.304zM11 22a4.652 4.652 0 0 1-3.754-1.934 4.658 4.658 0 0 1-4.024-1.287 4.65 4.65 0 0 1-1.286-4.024A4.65 4.65 0 0 1 0 11c0-1.494.739-2.893 1.936-3.754a4.654 4.654 0 0 1 1.285-4.024 4.649 4.649 0 0 1 4.025-1.286A4.647 4.647 0 0 1 11 0c1.493 0 2.892.739 3.754 1.936a4.643 4.643 0 0 1 4.023 1.285 4.653 4.653 0 0 1 1.287 4.025A4.649 4.649 0 0 1 22 11c0 1.493-.74 2.894-1.936 3.755a4.65 4.65 0 0 1-1.285 4.023 4.59 4.59 0 0 1-3.264 1.349c-.256 0-.51-.021-.761-.061A4.652 4.652 0 0 1 11 22z"/>
        <path d="M10.007 15.438L6 12.767l1.387-2.08 1.993 1.329L13.676 6l2.035 1.453z"/>
    </g>
</svg>
