<?xml version="1.0" encoding="UTF-8" standalone="no"?>
<svg width="18px" height="16px" viewBox="0 0 18 16" version="1.1" xmlns="http://www.w3.org/2000/svg" xmlns:xlink="http://www.w3.org/1999/xlink">
    <!-- Generator: Sketch 46.2 (44496) - http://www.bohemiancoding.com/sketch -->
    <title>Comments Sm@2x</title>
    <desc>Created with Sketch.</desc>
    <defs></defs>
    <g id="Symbols" stroke="none" stroke-width="1" fill="none" fill-rule="evenodd">
        <g id="Icons/Comments-Sm" fill="#404040">
            <g id="Comments-Sm">
                <path d="M11.72385,8.38095238 C9.8631,8.38095238 8.34885,9.74780952 8.34885,11.4285714 C8.34885,13.1093333 9.8631,14.4761905 11.72385,14.4761905 L15.19785,14.4761905 L14.4291,13.3051429 L14.68335,12.8891429 C14.95935,12.4365714 15.09885,11.9451429 15.09885,11.4285714 C15.09885,9.74780952 13.58535,8.38095238 11.72385,8.38095238 L11.72385,8.38095238 Z M17.99985,16 L11.72385,16 C9.03585,16 6.84885,13.9497143 6.84885,11.4285714 C6.84885,8.90742857 9.03585,6.85714286 11.72385,6.85714286 C14.41185,6.85714286 16.59885,8.90742857 16.59885,11.4285714 C16.59885,12.055619 16.4601,12.6765714 16.1946,13.2487619 L17.99985,16 Z" id="Fill-1389"></path>
                <path d="M5.34885,12.1904762 L0.53835,12.1904762 L3.3696,9.31504762 C2.69985,8.34895238 2.34885,7.24952381 2.34885,6.0952381 C2.34885,2.73447619 5.37735,0 9.09885,0 C12.44985,0 15.32385,2.256 15.78435,5.2487619 L14.30235,5.48342857 C13.9551,3.22590476 11.71785,1.52380952 9.09885,1.52380952 C6.20385,1.52380952 3.84885,3.57409524 3.84885,6.0952381 C3.84885,7.10171429 4.2231,8.05942857 4.93185,8.86552381 L5.40435,9.40266667 L4.15935,10.6666667 L5.34885,10.6666667 L5.34885,12.1904762 Z" id="Fill-1390"></path>
            </g>
        </g>
    </g>
</svg>