<?xml version="1.0" encoding="UTF-8" standalone="no"?>
<svg width="27px" height="17px" viewBox="0 0 27 17" version="1.1" xmlns="http://www.w3.org/2000/svg" xmlns:xlink="http://www.w3.org/1999/xlink">
    <!-- Generator: Sketch 46.2 (44496) - http://www.bohemiancoding.com/sketch -->
    <title>Post to Pinterest Icon</title>
    <desc>Created with Sketch.</desc>
    <defs></defs>
    <g id="Symbols" stroke="none" stroke-width="1" fill="none" fill-rule="evenodd">
        <g id="Icons/Post-to-Pinterest" fill="#404040">
            <g id="Post-to-Pinterest-Icon">
                <g id="Icons/Pinterest" transform="translate(10.000000, 0.000000)">
                    <g id="Pinterest">
                        <g id="pinterest-glyph">
                            <path d="M8.50026057,0 C3.80586126,0 0,3.80534012 0,8.49973943 C0,12.100794 2.24036663,15.1765427 5.40262408,16.4147635 C5.32810153,15.7424972 5.2608749,14.7106465 5.43180773,13.9768861 C5.58658533,13.313479 6.42874222,9.75150976 6.42874222,9.75150976 C6.42874222,9.75150976 6.17442752,9.24235922 6.17442752,8.48983783 C6.17442752,7.30789982 6.85920113,6.4256154 7.71230189,6.4256154 C8.43772417,6.4256154 8.78792802,6.96968211 8.78792802,7.62266638 C8.78792802,8.35225775 8.32359523,9.44247571 8.08387235,10.4529597 C7.88375586,11.2987646 8.50807762,11.9887496 9.34241746,11.9887496 C10.8531927,11.9887496 12.0148064,10.3956347 12.0148064,8.09637963 C12.0148064,6.06134085 10.5524969,4.63811655 8.46430214,4.63811655 C6.04570675,4.63811655 4.62613041,6.45219337 4.62613041,8.32724319 C4.62613041,9.05735569 4.90754422,9.84114527 5.25879035,10.266914 C5.32810153,10.350817 5.33852426,10.4248184 5.3176788,10.5108059 C5.25305785,10.7791913 5.10974526,11.3566108 5.08160387,11.4743877 C5.04460317,11.6302075 4.95809448,11.6630391 4.79706324,11.5885166 C3.7355078,11.0939579 3.07210079,9.54201281 3.07210079,8.29545385 C3.07210079,5.61420557 5.02010975,3.15183471 8.68839091,3.15183471 C11.6364612,3.15183471 13.9284203,5.25305785 13.9284203,8.06094234 C13.9284203,10.9902517 12.0809908,13.3478741 9.51751939,13.3478741 C8.65608044,13.3478741 7.84675516,12.9002177 7.56951044,12.371785 C7.56951044,12.371785 7.14322062,13.9946047 7.04003556,14.392232 C6.84773612,15.1306827 6.32972625,16.0562215 5.98317035,16.6206125 C6.77842494,16.866589 7.62370865,16.9994789 8.50026057,16.9994789 C13.1941387,16.9994789 17,13.1941387 17,8.49973943 C17,3.80534012 13.1941387,0 8.50026057,0" id="logo"></path>
                        </g>
                    </g>
                </g>
                <g id="Fill-946-+-Fill-947" transform="translate(0.000000, 4.000000)">
                    <polygon id="Fill-946" points="3.27798535 8 4.69198535 9.414 9.39898535 4.707 4.69198535 0 3.27798535 1.414 5.57098535 3.707 0 3.707 0 5.707 5.57098535 5.707"></polygon>
                </g>
            </g>
        </g>
    </g>
</svg>