<?xml version="1.0" encoding="UTF-8" standalone="no"?>
<svg width="24px" height="23px" viewBox="0 0 24 23" version="1.1" xmlns="http://www.w3.org/2000/svg" xmlns:xlink="http://www.w3.org/1999/xlink">
    <!-- Generator: Sketch 48.1 (47250) - http://www.bohemiancoding.com/sketch -->
    <title>Send to Facebook Sent Icon</title>
    <desc>Created with Sketch.</desc>
    <defs>
        <filter x="-11.2%" y="-11.8%" width="122.5%" height="123.7%" filterUnits="objectBoundingBox" id="filter-1">
            <feOffset dx="0" dy="0" in="SourceAlpha" result="shadowOffsetOuter1"></feOffset>
            <feGaussianBlur stdDeviation="0.75" in="shadowOffsetOuter1" result="shadowBlurOuter1"></feGaussianBlur>
            <feColorMatrix values="0 0 0 0 0   0 0 0 0 0   0 0 0 0 0  0 0 0 0.23 0" type="matrix" in="shadowBlurOuter1" result="shadowMatrixOuter1"></feColorMatrix>
            <feMerge>
                <feMergeNode in="shadowMatrixOuter1"></feMergeNode>
                <feMergeNode in="SourceGraphic"></feMergeNode>
            </feMerge>
        </filter>
    </defs>
    <g id="Actions/Send-To-Facebook-Sent" stroke="none" stroke-width="1" fill="none" fill-rule="evenodd" transform="translate(0.000000, -1.000000)">
        <g id="Send-to-Facebook-Sent-Icon" filter="url(#filter-1)" transform="translate(2.000000, 3.000000)" fill="#a5a5a5">
            <g id="Group-2">
                <g id="Facebook" transform="translate(0.000000, 7.000000)">
                    <path d="M12,11.3377462 C12,11.7035221 11.7035221,12.0003269 11.3377462,12.0003269 L8.27980714,12.0003269 L8.27980714,7.35310942 L9.83966658,7.35310942 L10.073384,5.54188118 L8.27980714,5.54188118 L8.27980714,4.38571545 C8.27980714,3.86140394 8.42559451,3.50412683 9.17741276,3.50412683 L10.1364714,3.50379995 L10.1364714,1.88379505 C9.97041759,1.86189426 9.40132385,1.81253575 8.73907003,1.81253575 C7.3563782,1.81253575 6.40974095,2.65653346 6.40974095,4.20658658 L6.40974095,5.54188118 L4.84595898,5.54188118 L4.84595898,7.35310942 L6.40974095,7.35310942 L6.40974095,12.0003269 L0.66225382,12.0003269 C0.296477895,12.0003269 0,11.7035221 0,11.3377462 L0,0.662580698 C0,0.296477895 0.296477895,0 0.66225382,0 L11.3377462,0 C11.7035221,0 12,0.296477895 12,0.662580698 L12,11.3377462"></path>
                </g>
                <polygon id="Shape" fill-rule="nonzero" points="13.707 7.121 10 3.414 11.414 2 13.707 4.293 18 0 19.414 1.414"></polygon>
            </g>
        </g>
    </g>
</svg>
