<?xml version="1.0" encoding="UTF-8"?>
<svg width="24px" height="25px" viewBox="0 0 24 25" version="1.1" xmlns="http://www.w3.org/2000/svg" xmlns:xlink="http://www.w3.org/1999/xlink">
    <!-- Generator: Sketch 47.1 (45422) - http://www.bohemiancoding.com/sketch -->
    <title>Facebook</title>
    <desc>Created with Sketch.</desc>
    <defs></defs>
    <g id="AWA" stroke="none" stroke-width="1" fill="none" fill-rule="evenodd">
        <g id="Campaign-Social-Posts-Facebook" transform="translate(-299.000000, -53.000000)" fill="#404040">
            <path d="M323,76.5498747 C323,77.2814066 322.407044,77.875 321.675492,77.875 L315.559614,77.875 L315.559614,68.5808183 L318.679333,68.5808183 L319.146768,64.9584604 L315.559614,64.9584604 L315.559614,62.646192 C315.559614,61.5975975 315.851189,60.8830628 317.354826,60.8830628 L319.272943,60.882409 L319.272943,57.6424875 C318.940835,57.5986871 317.802648,57.4999728 316.47814,57.4999728 C313.712756,57.4999728 311.819482,59.1879222 311.819482,62.287944 L311.819482,64.9584604 L308.691918,64.9584604 L308.691918,68.5808183 L311.819482,68.5808183 L311.819482,77.875 L300.324508,77.875 C299.592956,77.875 299,77.2814066 299,76.5498747 L299,55.2001253 C299,54.4679396 299.592956,53.875 300.324508,53.875 L321.675492,53.875 C322.407044,53.875 323,54.4679396 323,55.2001253 L323,76.5498747" id="Facebook"></path>
        </g>
    </g>
</svg>