<svg xmlns="http://www.w3.org/2000/svg" width="25" height="25" viewBox="0 0 25 25">
    <g fill="none" fill-rule="evenodd">
        <path d="M-18-23h60v1024h-60z"/>
        <path fill="#BD081C" d="M12.462 0C5.58 0 0 5.579 0 12.461c0 5.28 3.285 9.79 7.92 11.605-.109-.986-.207-2.499.044-3.575.226-.972 1.461-6.194 1.461-6.194s-.373-.747-.373-1.85c0-1.733 1.004-3.026 2.255-3.026 1.063 0 1.577.797 1.577 1.755 0 1.07-.68 2.668-1.032 4.149-.294 1.24.622 2.252 1.845 2.252 2.215 0 3.918-2.336 3.918-5.707 0-2.984-2.144-5.07-5.206-5.07-3.545 0-5.627 2.66-5.627 5.409 0 1.07.413 2.219.928 2.843a.372.372 0 0 1 .086.358c-.095.393-.305 1.24-.346 1.413-.054.228-.181.276-.417.167-1.556-.725-2.529-3-2.529-4.828 0-3.931 2.856-7.541 8.234-7.541 4.322 0 7.682 3.08 7.682 7.197 0 4.295-2.708 7.751-6.466 7.751-1.263 0-2.45-.656-2.856-1.43L10.32 21.1c-.282 1.083-1.041 2.44-1.55 3.267a12.47 12.47 0 0 0 3.691.556c6.882 0 12.462-5.58 12.462-12.462S19.344 0 12.462 0"/>
    </g>
</svg>
