<?xml version="1.0" encoding="UTF-8" standalone="no"?>
<svg width="165px" height="31px" viewBox="0 0 165 31" version="1.1" xmlns="http://www.w3.org/2000/svg" xmlns:xlink="http://www.w3.org/1999/xlink">
    <!-- Generator: sketchtool 3.8.3 (29802) - http://www.bohemiancoding.com/sketch -->
    <title>1A2A3653-0399-4D28-AC52-5AEEBE864049</title>
    <desc>Created with sketchtool.</desc>
    <defs>
        <polygon id="path-1" points="0 30.5303761 164.819871 30.5303761 164.819871 0.275777448 0 0.275777448"></polygon>
    </defs>
    <g id="Layout" stroke="none" stroke-width="1" fill="none" fill-rule="evenodd">
        <g id="Desktop-Landing-Creators-Login" transform="translate(-257.000000, -832.000000)">
            <g id="logo-black" transform="translate(257.000000, 832.000000)">
                <path d="M42.1026031,12.4526007 L42.1026031,18.2898096 L45.6469023,18.2898096 C47.7036203,18.2898096 48.7430063,17.0369973 48.7430063,15.3125129 C48.7430063,13.610794 47.7036203,12.4526007 45.6469023,12.4526007 L42.1026031,12.4526007 L42.1026031,12.4526007 Z M38.9360685,9.90002232 L45.9307593,9.90002232 C49.8065806,9.90002232 51.9572061,12.098313 51.9572061,15.2648477 C51.9572061,18.4790475 49.8065806,20.8416765 45.9307593,20.8416765 L42.1026031,20.8416765 L42.1026031,26.1595481 L38.9360685,26.1595481 L38.9360685,9.90002232 L38.9360685,9.90002232 Z" id="Fill-1" fill="#FFFFFF"></path>
                <path d="M58.2443887,24.1270896 C60.0407266,24.1270896 61.1982085,22.6857507 61.1982085,20.392841 C61.1982085,18.0536889 60.0407266,16.6827808 58.2443887,16.6827808 C56.4487623,16.6827808 55.2663806,18.1006427 55.2663806,20.392841 C55.2663806,22.6857507 56.4487623,24.1270896 58.2443887,24.1270896 M58.2443887,14.3429173 C61.9074952,14.3429173 64.3412663,16.5646849 64.3412663,20.392841 C64.3412663,24.1740434 61.7659224,26.4427648 58.2443887,26.4427648 C54.5578054,26.4427648 52.1233229,24.2217086 52.1233229,20.392841 C52.1233229,16.6123501 54.7000896,14.3429173 58.2443887,14.3429173" id="Fill-3" fill="#FFFFFF"></path>
                <path d="M71.739475,16.6593039 C70.0619444,16.6593039 68.8560859,18.0067352 68.8091321,20.2277914 L68.8091321,20.392841 C68.8091321,22.7092276 70.0142792,24.1270896 71.739475,24.1270896 C73.4411939,24.1270896 74.6228641,22.6146086 74.6228641,20.298222 C74.6228641,17.9825469 73.4411939,16.6593039 71.739475,16.6593039 L71.739475,16.6593039 Z M68.8091321,30.5021327 L65.7606933,30.5021327 L65.7606933,14.6267742 L68.6675593,14.6267742 L68.6675593,16.2808279 L68.7614669,16.2808279 C69.4237998,15.0052502 70.7705197,14.3429173 72.5426692,14.3429173 C75.4495352,14.3429173 77.7424449,16.4231121 77.7424449,20.298222 C77.7424449,24.1740434 75.3314394,26.4427648 72.3541427,26.4427648 C70.6759007,26.4427648 69.4237998,25.7811433 68.7614669,24.5048541 L68.6675593,24.5048541 C68.8091321,26.017335 68.8091321,27.3647663 68.8091321,28.1444837 L68.8091321,30.5021327 Z" id="Fill-5" fill="#FFFFFF"></path>
                <path d="M79.208399,14.6264897 L82.2568377,14.6264897 L82.2568377,21.2441273 C82.2568377,23.3705645 83.154651,24.0798512 84.5020822,24.0798512 C85.9910863,24.0798512 87.1016144,22.8512273 87.1016144,20.7233672 L87.1016144,14.6264897 L90.1265762,14.6264897 L90.1265762,26.1593347 L87.2431871,26.1593347 L87.2431871,24.505281 L87.1485682,24.505281 C86.4869467,25.7815701 85.2583227,26.4424802 83.6512228,26.4424802 C81.2878824,26.4424802 79.208399,25.2138562 79.208399,21.6218919 L79.208399,14.6264897 Z" id="Fill-7" fill="#FFFFFF"></path>
                <mask id="mask-2" fill="white">
                    <use xlink:href="#path-1"></use>
                </mask>
                <g id="Clip-10"></g>
                <polygon id="Fill-9" fill="#FFFFFF" mask="url(#mask-2)" points="91.9703659 26.1586944 95.0188047 26.1586944 95.0188047 8.86049403 91.9703659 8.86049403"></polygon>
                <path d="M104.283213,21.5037248 L104.283213,20.4871043 C104.070498,20.7944382 103.669257,20.9367223 103.149208,21.0313413 L101.377058,21.3144869 C100.147723,21.5272017 99.6746279,22.0707273 99.6746279,22.874633 C99.6746279,23.7717348 100.289296,24.3159718 101.470966,24.3159718 C102.913016,24.3159718 104.283213,23.4416355 104.283213,21.5037248 M100.596629,19.6604332 L102.817686,19.328911 C104.047021,19.1403844 104.283213,18.9511465 104.283213,18.4076209 C104.259736,17.2736159 103.64578,16.4704216 102.227206,16.4704216 C100.809344,16.4704216 100.053104,17.2024738 99.9584849,18.3606671 L97.122761,18.3606671 C97.2878106,15.7846118 99.3680055,14.343273 102.227206,14.343273 C105.630644,14.343273 107.331652,15.8080887 107.331652,18.5499051 L107.331652,26.1592635 L104.425497,26.1592635 L104.425497,24.7883554 L104.283213,24.7883554 C103.598114,25.8284528 102.321825,26.4424091 100.596629,26.4424091 C98.0205742,26.4424091 96.6738544,25.1191661 96.6738544,23.1812554 C96.6738544,21.2440562 97.8555246,20.0858629 100.596629,19.6604332" id="Fill-11" fill="#FFFFFF" mask="url(#mask-2)"></path>
                <path d="M109.152676,14.6264897 L112.059542,14.6264897 L112.059542,16.3758738 L112.106496,16.3758738 C112.674209,15.1465384 113.690119,14.3433441 115.179123,14.3433441 C115.651506,14.3433441 116.195032,14.4137748 116.785511,14.8164391 L116.171555,17.4387367 C115.651506,17.179068 115.2026,17.0609722 114.753693,17.0609722 C113.028497,17.0609722 112.201115,18.6204069 112.201115,20.6529365 L112.201115,26.1593347 L109.152676,26.1593347 L109.152676,14.6264897 Z" id="Fill-12" fill="#FFFFFF" mask="url(#mask-2)"></path>
                <path d="M121.253092,12.4526007 L121.253092,18.2898096 L124.797392,18.2898096 C126.85411,18.2898096 127.893496,17.0369973 127.893496,15.3125129 C127.893496,13.610794 126.85411,12.4526007 124.797392,12.4526007 L121.253092,12.4526007 Z M118.086558,9.90002232 L125.081249,9.90002232 C128.95707,9.90002232 131.107695,12.098313 131.107695,15.2648477 C131.107695,18.4790475 128.95707,20.8416765 125.081249,20.8416765 L121.253092,20.8416765 L121.253092,26.1595481 L118.086558,26.1595481 L118.086558,9.90002232 Z" id="Fill-13" fill="#FFFFFF" mask="url(#mask-2)"></path>
                <path d="M138.788836,21.5037248 L138.788836,20.4871043 C138.576121,20.7944382 138.17488,20.9367223 137.654831,21.0313413 L135.882682,21.3144869 C134.653346,21.5272017 134.180251,22.0707273 134.180251,22.874633 C134.180251,23.7717348 134.794919,24.3159718 135.976589,24.3159718 C137.418639,24.3159718 138.788836,23.4416355 138.788836,21.5037248 M135.102253,19.6604332 L137.323309,19.328911 C138.552644,19.1403844 138.788836,18.9511465 138.788836,18.4076209 C138.765359,17.2736159 138.151403,16.4704216 136.73283,16.4704216 C135.314968,16.4704216 134.558727,17.2024738 134.464108,18.3606671 L131.628384,18.3606671 C131.793434,15.7846118 133.873629,14.343273 136.73283,14.343273 C140.136268,14.343273 141.837275,15.8080887 141.837275,18.5499051 L141.837275,26.1592635 L138.93112,26.1592635 L138.93112,24.7883554 L138.788836,24.7883554 C138.103738,25.8284528 136.827449,26.4424091 135.102253,26.4424091 C132.526198,26.4424091 131.179478,25.1191661 131.179478,23.1812554 C131.179478,21.2440562 132.361148,20.0858629 135.102253,19.6604332" id="Fill-14" fill="#FFFFFF" mask="url(#mask-2)"></path>
                <path d="M156.949848,22.8508715 C156.949848,24.0325417 158.179183,24.4344946 159.360854,24.4344946 C160.943765,24.4344946 161.795336,23.9144459 161.795336,22.9924443 C161.795336,22.1885386 161.203434,21.8819162 160.092906,21.6926782 L157.989945,21.3618675 C156.005081,21.0552451 154.397981,20.2748163 154.397981,18.1007139 C154.397981,15.6662314 156.572083,14.3429884 159.478949,14.3429884 C162.385815,14.3429884 164.512253,15.4777048 164.512253,17.8410452 L161.700717,17.8410452 C161.700717,16.7774709 160.684096,16.3520412 159.454761,16.3520412 C158.20266,16.3520412 157.328324,16.8479016 157.328324,17.698761 C157.328324,18.4315246 157.800707,18.7858122 159.148139,18.9985271 L161.227622,19.3293379 C163.094391,19.6366717 164.820298,20.3694353 164.820298,22.5912029 C164.820298,25.1900236 162.550865,26.4428359 159.360854,26.4428359 C156.288226,26.4428359 154.090647,25.3081195 154.090647,22.8508715 L156.949848,22.8508715 Z" id="Fill-15" fill="#FFFFFF" mask="url(#mask-2)"></path>
                <path d="M142.083355,14.6431369 L145.496753,14.6431369 L148.315403,22.9482651 L151.010266,14.6431369 L154.117752,14.6431369 L149.881952,26.5110612 C148.95995,29.1931182 147.946887,30.5021327 144.963187,30.5021327 L143.450707,30.517784 L143.450707,28.0961071 L144.297297,28.065516 C146.590207,28.065516 146.620087,26.2108415 146.620087,26.2108415 L142.083355,14.6431369 Z" id="Fill-16" fill="#FFFFFF" mask="url(#mask-2)"></path>
                <polygon id="Fill-17" fill="#17D69B" mask="url(#mask-2)" points="0 0.275919732 0 30.5305184 8.64376452 30.5305184 8.64376452 26.2086361 4.32188226 26.2086361 4.32188226 26.2086361 4.32188226 4.59780199 8.64376452 4.59780199 8.64376452 0.275919732"></polygon>
                <polygon id="Fill-18" fill="#17D69B" mask="url(#mask-2)" points="17.2880982 0.275919732 17.2880982 4.59780199 25.9318627 4.59780199 25.9318627 17.5641602 17.2880982 17.5641602 17.2880982 21.8860425 30.2544564 21.8860425 30.2544564 0.275919732"></polygon>
            </g>
        </g>
    </g>
</svg>