<svg xmlns="http://www.w3.org/2000/svg" width="119" height="22" viewBox="0 0 119 22">
    <g fill="none" fill-rule="evenodd">
        <path fill="#404040" d="M30.999 8.78v4.164h2.53c1.467 0 2.21-.893 2.21-2.124 0-1.213-.743-2.04-2.21-2.04h-2.53zm-2.26-1.82h4.992c2.767 0 4.301 1.568 4.301 3.827 0 2.292-1.534 3.977-4.3 3.977h-2.733v3.793h-2.26V6.96zM42.52 17.108c1.282 0 2.109-1.028 2.109-2.664 0-1.668-.827-2.646-2.109-2.646s-2.125 1.011-2.125 2.646c0 1.636.843 2.664 2.125 2.664m0-6.98c2.615 0 4.352 1.586 4.352 4.316 0 2.697-1.839 4.315-4.352 4.315-2.631 0-4.369-1.584-4.369-4.315 0-2.697 1.839-4.315 4.369-4.315M52.152 11.781c-1.197 0-2.058.96-2.091 2.545v.118c0 1.652.86 2.664 2.091 2.664 1.215 0 2.058-1.08 2.058-2.731 0-1.652-.843-2.596-2.058-2.596zm-2.091 9.874h-2.176V10.331h2.074v1.18h.068c.472-.91 1.434-1.382 2.699-1.382 2.075 0 3.71 1.484 3.71 4.248 0 2.765-1.72 4.383-3.845 4.383-1.198 0-2.092-.472-2.564-1.383h-.068c.102 1.079.102 2.04.102 2.596v1.682zM57.483 10.331h2.176v4.72c0 1.517.641 2.023 1.603 2.023 1.063 0 1.855-.876 1.855-2.394V10.33h2.16v8.226h-2.058v-1.18h-.068c-.472.91-1.35 1.383-2.497 1.383-1.686 0-3.17-.877-3.17-3.44v-4.989zM66.592 18.557h2.176V6.22h-2.176zM75.38 15.237v-.725c-.15.219-.437.32-.809.388l-1.265.202c-.877.151-1.214.539-1.214 1.112 0 .64.438 1.029 1.282 1.029 1.028 0 2.007-.624 2.007-2.006m-2.632-1.315l1.586-.236c.877-.135 1.046-.27 1.046-.658-.017-.809-.455-1.382-1.468-1.382-1.012 0-1.551.523-1.619 1.349H70.27c.118-1.838 1.602-2.866 3.643-2.866 2.43 0 3.644 1.045 3.644 3v5.428h-2.075v-.977h-.101c-.49.741-1.4 1.18-2.632 1.18-1.838 0-2.8-.945-2.8-2.327 0-1.382.844-2.208 2.8-2.511M78.856 10.331h2.075v1.248h.034c.405-.877 1.13-1.45 2.193-1.45.337 0 .725.05 1.147.338l-.439 1.87c-.371-.185-.692-.27-1.012-.27-1.231 0-1.822 1.113-1.822 2.562v3.928h-2.176v-8.226zM87.493 8.78v4.164h2.53c1.468 0 2.21-.893 2.21-2.124 0-1.213-.742-2.04-2.21-2.04h-2.53zm-2.26-1.82h4.993c2.766 0 4.301 1.568 4.301 3.827 0 2.292-1.535 3.977-4.301 3.977h-2.733v3.793h-2.26V6.96zM100.01 15.237v-.725c-.152.219-.439.32-.81.388l-1.265.202c-.877.151-1.215.539-1.215 1.112 0 .64.439 1.029 1.282 1.029 1.03 0 2.008-.624 2.008-2.006m-2.632-1.315l1.586-.236c.877-.135 1.046-.27 1.046-.658-.017-.809-.456-1.382-1.468-1.382s-1.552.523-1.619 1.349h-2.024c.118-1.838 1.602-2.866 3.643-2.866 2.429 0 3.644 1.045 3.644 3v5.428h-2.075v-.977h-.101c-.49.741-1.4 1.18-2.632 1.18-1.838 0-2.8-.945-2.8-2.327 0-1.382.844-2.208 2.8-2.511M112.972 16.197c0 .843.877 1.13 1.72 1.13 1.131 0 1.739-.37 1.739-1.029 0-.573-.422-.792-1.215-.927l-1.501-.235c-1.417-.22-2.564-.776-2.564-2.327 0-1.736 1.552-2.68 3.626-2.68 2.075 0 3.593.81 3.593 2.495h-2.007c0-.759-.725-1.062-1.603-1.062-.894 0-1.517.354-1.517.96 0 .523.337.776 1.298.927l1.484.237c1.333.219 2.564.741 2.564 2.326 0 1.854-1.619 2.747-3.896 2.747-2.193 0-3.761-.809-3.761-2.562h2.04zM102.361 10.343h2.437l2.011 5.924 1.924-5.924h2.218l-3.023 8.465c-.659 1.913-1.382 2.847-3.511 2.847l-1.08.011v-1.728l.604-.02c1.637 0 1.658-1.324 1.658-1.324l-3.238-8.251z"/>
        <path fill="#17D69B" d="M.88 0v21.656h6.147v-3.093H3.954V3.092h3.073V0zM16.343.01V3.1h3.088v9.276h-3.088v3.092h6.192V.009z"/>
    </g>
</svg>
