<?xml version="1.0" encoding="UTF-8" standalone="no"?>
<svg width="16px" height="21px" viewBox="0 0 16 21" version="1.1" xmlns="http://www.w3.org/2000/svg" xmlns:xlink="http://www.w3.org/1999/xlink">
    <!-- Generator: Sketch 48.2 (47327) - http://www.bohemiancoding.com/sketch -->
    <title>Upload Blue</title>
    <desc>Created with Sketch.</desc>
    <defs></defs>
    <g id="MVP-Campaign-Brief-Builder-1" stroke="none" stroke-width="1" fill="none" fill-rule="evenodd" transform="translate(-193.000000, -764.000000)">
        <g id="Buttons/Outline-Blue-Icon" transform="translate(182.000000, 758.000000)" fill="#3894FD">
            <g id="Icon" transform="translate(7.000000, 5.000000)">
                <g id="Upload-Blue" transform="translate(4.000000, 1.000000)">
                    <polygon id="Fill-587" transform="translate(7.998000, 7.807000) rotate(180.000000) translate(-7.998000, -7.807000) " points="13.7029998 9.30700002 12.2894954 7.89300002 8.99764946 11.186 8.99764946 0.600000024 6.99835038 0.600000024 6.99835038 11.186 3.70650445 7.89300002 2.293 9.30700002 7.99799992 15.014"></polygon>
                    <path d="M14,17 L14,19 L2,19 L2,17 L0,17 L0,19 C0,20.103 0.897,21 2,21 L14,21 C15.103,21 16,20.103 16,19 L16,17 L14,17 Z" id="Fill-588"></path>
                </g>
            </g>
        </g>
    </g>
</svg>