<?xml version="1.0" encoding="UTF-8" standalone="no"?>
<svg width="14px" height="12px" viewBox="0 0 14 12" version="1.1" xmlns="http://www.w3.org/2000/svg" xmlns:xlink="http://www.w3.org/1999/xlink">
    <!-- Generator: Sketch 46.2 (44496) - http://www.bohemiancoding.com/sketch -->
    <title>Likes Sm@2x</title>
    <desc>Created with Sketch.</desc>
    <defs></defs>
    <g id="Symbols" stroke="none" stroke-width="1" fill="none" fill-rule="evenodd">
        <g id="Icons/Likes-Sm" fill="#404040">
            <g id="Likes-Sm">
                <path d="M3.88888889,1.5 C2.60244444,1.5 1.55555556,2.5095 1.55555556,3.75 C1.55555556,6.27225 5.16677778,9.15525 7,10.3545 C8.83322222,9.15525 12.4444444,6.27225 12.4444444,3.75 C12.4444444,2.5095 11.3975556,1.5 10.1111111,1.5 C8.79744444,1.5 7.77777778,2.70975 7.77777778,3.75 C7.77777778,4.164 7.42933333,4.5 7,4.5 C6.57066667,4.5 6.22222222,4.164 6.22222222,3.75 C6.22222222,2.70975 5.20255556,1.5 3.88888889,1.5 M7,12 C6.85688889,12 6.71377778,11.96175 6.58777778,11.886 C6.31866667,11.724 0,7.86825 0,3.75 C0,1.68225 1.74455556,0 3.88888889,0 C5.12866667,0 6.27744444,0.62775 7,1.56 C7.72255556,0.62775 8.87133333,0 10.1111111,0 C12.2554444,0 14,1.68225 14,3.75 C14,7.86825 7.68133333,11.724 7.41222222,11.886 C7.28622222,11.96175 7.14311111,12 7,12" id="Fill-387"></path>
            </g>
        </g>
    </g>
</svg>