<svg xmlns="http://www.w3.org/2000/svg" width="26" height="26" viewBox="0 0 26 26">
    <g fill="#757575" fill-rule="evenodd">
        <path d="M19.436 17.995L7.289 14.97V9.6l12.147-3.026v11.421zM2.43 9.865h2.429v4.84h-2.43v-4.84zM21.398 4.07a1.208 1.208 0 0 0-1.042-.22L5.924 7.444H2.43A2.427 2.427 0 0 0 0 9.864v4.841c0 1.334 1.09 2.42 2.43 2.42h2.429v2.42c0 .263.085.517.243.727l3.644 4.84 1.944-1.452-3.401-4.519v-1.676l13.067 3.254a1.224 1.224 0 0 0 1.042-.22c.295-.23.468-.58.468-.953V5.024c0-.373-.173-.725-.468-.954zM23.08 8.878v6.814c1.412-.501 2.43-1.832 2.43-3.408 0-1.574-1.018-2.905-2.43-3.406"/>
    </g>
</svg>
