<?xml version="1.0" encoding="UTF-8"?>
<svg width="27px" height="13px" viewBox="0 0 27 13" version="1.1" xmlns="http://www.w3.org/2000/svg" xmlns:xlink="http://www.w3.org/1999/xlink">
    <!-- Generator: Sketch 47 (45396) - http://www.bohemiancoding.com/sketch -->
    <title>Post to YouTube Icon</title>
    <desc>Created with Sketch.</desc>
    <defs></defs>
    <g id="Icons" stroke="none" stroke-width="1" fill="none" fill-rule="evenodd">
        <g id="Network/YouTube-Post-To" transform="translate(-1.000000, -6.000000)" fill="#404040">
            <g id="Post-to-YouTube-Icon" transform="translate(1.000000, 4.000000)">
                <g id="Network/YouTube" transform="translate(10.000000, 0.000000)">
                    <g id="Youtube" transform="translate(0.000000, 2.125000)">
                        <path d="M6.79995971,8.5000196 L6.79995971,3.39997986 L11.2165611,5.94999973 L6.79995971,8.5000196 Z M16.6447464,1.85818548 C16.4491185,1.12688965 15.8731496,0.550780784 15.1417138,0.355292787 C13.8159777,0 8.49987967,0 8.49987967,0 C8.49987967,0 3.18392154,0 1.85818548,0.355292787 C1.12674971,0.550780784 0.550780784,1.12688965 0.355292787,1.85818548 C0,3.18392154 0,5.94999973 0,5.94999973 C0,5.94999973 0,8.71607792 0.355292787,10.041814 C0.550780784,10.7731098 1.12674971,11.3492187 1.85818548,11.5447067 C3.18392154,11.8999995 8.49987967,11.8999995 8.49987967,11.8999995 C8.49987967,11.8999995 13.8159777,11.8999995 15.1417138,11.5447067 C15.8731496,11.3492187 16.4491185,10.7731098 16.6447464,10.041814 C16.9998993,8.71607792 16.9998993,5.94999973 16.9998993,5.94999973 C16.9998993,5.94999973 16.9998993,3.18392154 16.6447464,1.85818548 L16.6447464,1.85818548 Z" id="Fill-1"></path>
                    </g>
                </g>
                <g id="Fill-946-+-Fill-947" transform="translate(0.000000, 4.000000)">
                    <polygon id="Fill-946" points="3.27798535 8 4.69198535 9.414 9.39898535 4.707 4.69198535 0 3.27798535 1.414 5.57098535 3.707 0 3.707 0 5.707 5.57098535 5.707"></polygon>
                </g>
            </g>
        </g>
    </g>
</svg>