<?xml version="1.0" encoding="UTF-8"?>
<svg width="28px" height="24px" viewBox="0 0 28 24" version="1.1" xmlns="http://www.w3.org/2000/svg" xmlns:xlink="http://www.w3.org/1999/xlink">
    <!-- Generator: Sketch 47.1 (45422) - http://www.bohemiancoding.com/sketch -->
    <title>Network/Facebook Post To</title>
    <desc>Created with Sketch.</desc>
    <defs></defs>
    <g id="Icons" stroke="none" stroke-width="1" fill="none" fill-rule="evenodd">
        <g id="Network/Facebook-Post-To" fill="#404040">
            <g id="Post-to-YouTube-Icon" transform="translate(1.000000, 4.000000)">
                <g id="Network/Facebook" transform="translate(10.000000, 0.000000)">
                    <path d="M14.875,14.1713553 C14.875,14.5599922 14.5599922,14.8753473 14.1713553,14.8753473 L10.9222951,14.8753473 L10.9222951,9.93767876 L12.5796457,9.93767876 L12.8279705,8.01324875 L10.9222951,8.01324875 L10.9222951,6.78482267 C10.9222951,6.22774169 11.0771942,5.84813476 11.8760011,5.84813476 L12.8950008,5.84778745 L12.8950008,4.12653224 C12.7185687,4.10326265 12.1139066,4.05081924 11.4102619,4.05081924 C9.94115183,4.05081924 8.93534976,4.94756681 8.93534976,6.59449824 L8.93534976,8.01324875 L7.27383141,8.01324875 L7.27383141,9.93767876 L8.93534976,9.93767876 L8.93534976,14.8753473 L2.82864468,14.8753473 C2.44000776,14.8753473 2.125,14.5599922 2.125,14.1713553 L2.125,2.82899199 C2.125,2.44000776 2.44000776,2.125 2.82864468,2.125 L14.1713553,2.125 C14.5599922,2.125 14.875,2.44000776 14.875,2.82899199 L14.875,14.1713553" id="Facebook"></path>
                </g>
                <g id="Fill-946-+-Fill-947" transform="translate(0.000000, 4.000000)">
                    <polygon id="Fill-946" points="3.13883542 7.64818356 4.49281136 9 9 4.5 4.49281136 0 3.13883542 1.35181644 5.33449796 3.54397706 0 3.54397706 0 5.45602294 5.33449796 5.45602294"></polygon>
                </g>
            </g>
        </g>
    </g>
</svg>