<svg xmlns="http://www.w3.org/2000/svg" width="26" height="26" viewBox="0 0 26 26">
    <g fill="#757575" fill-rule="evenodd">
        <path d="M7.486 23.518h10c0-2.152-2.102-3.714-4.998-3.714-2.898 0-5.002 1.562-5.002 3.714zm12.5 2.476h-15v-2.476c0-3.53 3.225-6.19 7.502-6.19 4.275 0 7.498 2.66 7.498 6.19v2.476zM8.07 15.693c-1.717-2.185-1.587-5.341.44-7.35a5.615 5.615 0 0 1 3.977-1.631c1.502 0 2.915.58 3.977 1.632 2.025 2.008 2.155 5.164.439 7.349a9.89 9.89 0 0 1 2.209 1.237 8 8 0 0 0-.88-10.337 8.106 8.106 0 0 0-5.745-2.357 8.106 8.106 0 0 0-5.745 2.357 8 8 0 0 0-.88 10.337 9.89 9.89 0 0 1 2.209-1.237"/>
        <path d="M4.45 18.25c-2.889-3.875-2.574-9.372.966-12.879 3.899-3.861 10.243-3.861 14.141 0 3.54 3.507 3.855 9.005.967 12.88a8.096 8.096 0 0 1 1.373 2.251c4.28-4.857 4.1-12.256-.572-16.882-4.873-4.827-12.804-4.827-17.676 0-4.67 4.626-4.853 12.025-.574 16.881a8.153 8.153 0 0 1 1.375-2.25"/>
        <path d="M12.486 11.137c-.688 0-1.25.556-1.25 1.238 0 .682.562 1.238 1.25 1.238.69 0 1.25-.556 1.25-1.238 0-.682-.56-1.238-1.25-1.238m0 4.953c-2.067 0-3.75-1.667-3.75-3.715s1.683-3.714 3.75-3.714c2.068 0 3.75 1.666 3.75 3.714s-1.682 3.715-3.75 3.715"/>
    </g>
</svg>
