<?xml version="1.0" encoding="UTF-8" standalone="no"?>
<svg width="20px" height="20px" viewBox="0 0 20 20" version="1.1" xmlns="http://www.w3.org/2000/svg" xmlns:xlink="http://www.w3.org/1999/xlink">
    <!-- Generator: Sketch 46.2 (44496) - http://www.bohemiancoding.com/sketch -->
    <title>Refresh</title>
    <desc>Created with Sketch.</desc>
    <defs></defs>
    <g id="Symbols" stroke="none" stroke-width="1" fill="none" fill-rule="evenodd">
        <g id="Icons/Refresh" fill="#a5a5a5">
            <g id="Refresh">
                <path d="M4.3506,4.3506 C5.8236,2.8716 7.8276,1.9996 9.9996,1.9996 C14.4116,1.9996 17.9996,5.5886 17.9996,9.9996 L19.9996,9.9996 C19.9996,4.4856 15.5146,-0.0004 9.9996,-0.0004 C7.2846,-0.0004 4.7796,1.0886 2.9376,2.9376 L0.9996,0.9996 L0.9996,6.9996 L6.9996,6.9996 L4.3506,4.3506 Z" id="Fill-760"></path>
                <path d="M15.6494,15.6494 C14.1764,17.1284 12.1724,18.0004 10.0004,18.0004 C5.5884,18.0004 2.0004,14.4114 2.0004,10.0004 L0.0004,10.0004 C0.0004,15.5144 4.4854,20.0004 10.0004,20.0004 C12.7154,20.0004 15.2204,18.9114 17.0624,17.0614 L19.0004,19.0004 L19.0004,13.0004 L13.0004,13.0004 L15.6494,15.6494 Z" id="Fill-761"></path>
            </g>
        </g>
    </g>
</svg>
