<svg xmlns="http://www.w3.org/2000/svg" width="18" height="16" viewBox="0 0 18 16">
    <g fill="#404040" fill-rule="evenodd">
        <path d="M7.364 10.4L12.273 8l-4.91-2.4z"/>
        <path d="M1.636 14.4V1.6h14.728l.001 12.8H1.636zM16.364 0H1.636C.734 0 0 .717 0 1.6v12.8c0 .882.734 1.6 1.636 1.6h14.728c.902 0 1.636-.718 1.636-1.6V1.6c0-.883-.734-1.6-1.636-1.6z"/>
        <path d="M3.273 4h1.636V2.4H3.273zM8.182 2.4H6.545V4h1.637zM11.455 2.4H9.818V4h1.637zM13.09 4h1.637V2.4h-1.636zM3.273 13.6h1.636V12H3.273zM6.545 13.6h1.637V12H6.545zM9.818 13.6h1.637V12H9.818zM13.09 13.6h1.637V12h-1.636z"/>
    </g>
</svg>
