<?xml version="1.0" encoding="UTF-8" standalone="no"?>
<svg width="10px" height="10px" viewBox="0 0 10 10" version="1.1" xmlns="http://www.w3.org/2000/svg" xmlns:xlink="http://www.w3.org/1999/xlink">
    <!-- Generator: Sketch 48.1 (47250) - http://www.bohemiancoding.com/sketch -->
    <title>Engagement Rate Sm</title>
    <desc>Created with Sketch.</desc>
    <defs></defs>
    <g id="Indicator/Engagement-Rate-Sm" stroke="none" stroke-width="1" fill="none" fill-rule="evenodd" transform="translate(-1.000000, -1.000000)">
        <g id="Engagement-Rate-Sm">
            <g id="Frame_-_24px">
                <rect id="Rectangle-path" x="0" y="0" width="12" height="12"></rect>
            </g>
            <g id="Line_Icons" transform="translate(1.000000, 1.000000)" fill="#404040" fill-rule="nonzero">
                <g id="Group">
                    <path d="M5,3.5 C5,2.673 4.327,2 3.5,2 C2.673,2 2,2.6735 2,3.5 C2,4.327 2.673,5 3.5,5 C4.327,5 5,4.3275 5,3.5 Z M3,3.5 C3,3.2245 3.2245,3 3.5,3 C3.7755,3 4,3.2245 4,3.5 C4,3.776 3.7755,4 3.5,4 C3.2245,4 3,3.776 3,3.5 Z" id="Shape"></path>
                    <path d="M6.5,5 C5.673,5 5,5.673 5,6.5 C5,7.327 5.673,8 6.5,8 C7.327,8 8,7.327 8,6.5 C8,5.6735 7.327,5 6.5,5 Z M6.5,7 C6.2245,7 6,6.776 6,6.5 C6,6.2245 6.2245,6 6.5,6 C6.7755,6 7,6.2245 7,6.5 C7,6.776 6.7755,7 6.5,7 Z" id="Shape"></path>
                    <rect id="Rectangle-path" transform="translate(4.999907, 5.000507) rotate(-45.000000) translate(-4.999907, -5.000507) " x="2.17143407" y="4.50050694" width="5.65694575" height="1"></rect>
                    <path d="M5,0 C2.243,0 0,2.243 0,5 C0,7.757 2.243,10 5,10 C7.757,10 10,7.7575 10,5 C10,2.2425 7.757,0 5,0 Z M5,9 C2.7945,9 1,7.2055 1,5 C1,2.7945 2.7945,1 5,1 C7.2055,1 9,2.7945 9,5 C9,7.2055 7.2055,9 5,9 Z" id="Shape"></path>
                </g>
            </g>
        </g>
    </g>
</svg>