<?xml version="1.0" encoding="UTF-8"?>
<svg width="15px" height="15px" viewBox="0 0 15 15" version="1.1" xmlns="http://www.w3.org/2000/svg" xmlns:xlink="http://www.w3.org/1999/xlink">
    <!-- Generator: Sketch 46.2 (44496) - http://www.bohemiancoding.com/sketch -->
    <title>Fill 1338 + Fill 1339</title>
    <desc>Created with Sketch.</desc>
    <defs></defs>
    <g id="Campaigns" stroke="none" stroke-width="1" fill="none" fill-rule="evenodd">
        <g id="Campaign-Dependencies-Gift-Codes" transform="translate(-1201.000000, -421.000000)" fill="#17D69B">
            <g id="Fill-1338-+-Fill-1339" transform="translate(1201.000000, 421.000000)">
                <path d="M7.5,1.5 C4.19175,1.5 1.5,4.19175 1.5,7.5 C1.5,10.80825 4.19175,13.5 7.5,13.5 C10.80825,13.5 13.5,10.80825 13.5,7.5 C13.5,4.19175 10.80825,1.5 7.5,1.5 M7.5,15 C3.3645,15 0,11.6355 0,7.5 C0,3.3645 3.3645,0 7.5,0 C11.6355,0 15,3.3645 15,7.5 C15,11.6355 11.6355,15 7.5,15" id="Fill-1338"></path>
                <polygon id="Fill-1339" points="6.869775 11.1954 3.836775 8.16315 5.162775 6.83715 6.630525 8.3049 9.737025 3.95565 11.262525 5.04465"></polygon>
            </g>
        </g>
    </g>
</svg>