<?xml version="1.0" encoding="UTF-8"?>
<svg width="21px" height="20px" viewBox="0 0 21 20" version="1.1" xmlns="http://www.w3.org/2000/svg" xmlns:xlink="http://www.w3.org/1999/xlink">
    <!-- Generator: Sketch 48.2 (47327) - http://www.bohemiancoding.com/sketch -->
    <title>Send to Pinterest Icon</title>
    <desc>Created with Sketch.</desc>
    <defs></defs>
    <g id="Campaign-Settings-Unlinked" stroke="none" stroke-width="1" fill="none" fill-rule="evenodd" transform="translate(-1190.000000, -222.000000)">
        <g id="Buttons/Button-Outline-Black-Icon" transform="translate(1181.000000, 215.000000)" fill="#404040">
            <g id="Icon" transform="translate(7.000000, 5.000000)">
                <g id="Send-to-Pinterest-Icon" transform="translate(2.000000, 2.000000)">
                    <g id="Group-2">
                        <g id="Pinterest" transform="translate(0.000000, 8.000000)">
                            <path d="M6.00018393,0 C2.6864903,0 0,2.68612244 0,5.99981607 C0,8.54173692 1.58143527,10.7128537 3.813617,11.5868919 C3.76101284,11.1123509 3.71355875,10.3839858 3.83421722,9.86603722 C3.943472,9.39774992 4.53793569,6.88341866 4.53793569,6.88341866 C4.53793569,6.88341866 4.35841942,6.52401827 4.35841942,5.99282671 C4.35841942,5.15851752 4.84178903,4.53572852 5.44397781,4.53572852 C5.95604059,4.53572852 6.20324331,4.9197756 6.20324331,5.38070568 C6.20324331,5.89571135 5.87547899,6.66527697 5.70626284,7.37855982 C5.56500414,7.97559854 6.00570185,8.46264676 6.59464762,8.46264676 C7.66107722,8.46264676 8.48103982,7.33809509 8.48103982,5.71509151 C8.48103982,4.27859354 7.44882131,3.27396462 5.97480151,3.27396462 C4.26755771,3.27396462 3.26550382,4.55448944 3.26550382,5.87805401 C3.26550382,6.39342755 3.46414886,6.94669078 3.71208731,7.24723338 C3.76101284,7.30645903 3.76837007,7.35869532 3.75365562,7.41939242 C3.70804083,7.60884093 3.606879,8.01643113 3.5870145,8.09956776 C3.56089636,8.20955826 3.4998314,8.23273352 3.38616229,8.18012936 C2.63682904,7.83102909 2.16854174,6.73553846 2.16854174,5.85561448 C2.16854174,3.96296864 3.54360688,2.2248245 6.13298182,2.2248245 C8.21397259,2.2248245 9.83182612,3.70804083 9.83182612,5.69007694 C9.83182612,7.75782471 8.52775819,9.42202875 6.71824898,9.42202875 C6.11017443,9.42202875 5.53888599,9.10603599 5.34318384,8.73302474 C5.34318384,8.73302474 5.04227338,9.8785445 4.96943687,10.1592226 C4.83369609,10.6804819 4.46804206,11.3338034 4.22341436,11.7321971 C4.78477055,11.9058275 5.3814414,11.9996321 6.00018393,11.9996321 C9.3135097,11.9996321 12,9.3135097 12,5.99981607 C12,2.68612244 9.3135097,0 6.00018393,0" id="logo"></path>
                        </g>
                        <g id="Group" transform="translate(11.000000, 0.000000)" fill-rule="nonzero">
                            <polygon id="Shape" points="9.708 5.292 5.001 0.585 0.294 5.292 1.708 6.707 4.001 4.414 4.001 11 6.001 11 6.001 4.414 8.294 6.707"></polygon>
                            <rect id="Rectangle-path" x="4.001" y="12" width="2" height="2"></rect>
                            <rect id="Rectangle-path" x="4.001" y="15" width="2" height="2"></rect>
                            <rect id="Rectangle-path" x="4.001" y="18" width="2" height="2"></rect>
                        </g>
                    </g>
                </g>
            </g>
        </g>
    </g>
</svg>
