<?xml version="1.0" encoding="UTF-8"?>
<svg width="24px" height="17px" viewBox="0 0 24 17" version="1.1" xmlns="http://www.w3.org/2000/svg" xmlns:xlink="http://www.w3.org/1999/xlink">
    <!-- Generator: Sketch 47 (45396) - http://www.bohemiancoding.com/sketch -->
    <title>Youtube</title>
    <desc>Created with Sketch.</desc>
    <defs></defs>
    <g id="Icons" stroke="none" stroke-width="1" fill="none" fill-rule="evenodd">
        <g id="Network/YouTube" transform="translate(0.000000, -3.000000)" fill="#404040">
            <g id="Youtube" transform="translate(0.000000, 3.000000)">
                <path d="M9.59994312,12.0000277 L9.59994312,4.79997156 L15.8351451,8.39999962 L9.59994312,12.0000277 Z M23.4984655,2.62332067 C23.2222849,1.59090303 22.4091523,0.777572872 21.3765371,0.501589817 C19.5049097,0 11.9998301,0 11.9998301,0 C11.9998301,0 4.49494806,0 2.62332067,0.501589817 C1.59070548,0.777572872 0.777572872,1.59090303 0.501589817,2.62332067 C0,4.49494806 0,8.39999962 0,8.39999962 C0,8.39999962 0,12.3050512 0.501589817,14.1766786 C0.777572872,15.2090962 1.59070548,16.0224264 2.62332067,16.2984094 C4.49494806,16.7999992 11.9998301,16.7999992 11.9998301,16.7999992 C11.9998301,16.7999992 19.5049097,16.7999992 21.3765371,16.2984094 C22.4091523,16.0224264 23.2222849,15.2090962 23.4984655,14.1766786 C23.9998578,12.3050512 23.9998578,8.39999962 23.9998578,8.39999962 C23.9998578,8.39999962 23.9998578,4.49494806 23.4984655,2.62332067 L23.4984655,2.62332067 Z" id="Fill-1"></path>
            </g>
        </g>
    </g>
</svg>