<?xml version="1.0" encoding="UTF-8" standalone="no"?>
<svg width="18px" height="18px" viewBox="0 0 18 18" version="1.1" xmlns="http://www.w3.org/2000/svg" xmlns:xlink="http://www.w3.org/1999/xlink">
    <!-- Generator: Sketch 48.2 (47327) - http://www.bohemiancoding.com/sketch -->
    <title>Network/Generic</title>
    <desc>Created with Sketch.</desc>
    <defs></defs>
    <g id="MVP-Campaign-New-Error" stroke="none" stroke-width="1" fill="none" fill-rule="evenodd" transform="translate(-502.000000, -573.000000)">
        <g id="Network/Generic" transform="translate(502.000000, 573.000000)" fill="#404040">
            <g id="Generic">
                <path d="M12.875625,15.409425 L13.261875,11.936925 C13.886625,11.790675 14.404875,11.383425 14.708625,10.836675 L16.198875,11.085675 C15.670125,12.909675 14.465625,14.444175 12.875625,15.409425 M5.381625,15.565425 L5.911125,14.240925 C5.941125,14.242425 5.969625,14.250675 6.000375,14.250675 C7.228125,14.250675 8.222625,13.265925 8.245875,12.042675 L10.984125,11.129175 C11.194125,11.398425 11.461125,11.616675 11.770875,11.768175 L11.285625,16.141425 C10.564125,16.373175 9.796875,16.500675 9.000375,16.500675 C7.687875,16.500675 6.455625,16.160175 5.381625,15.565425 M1.500375,9.000675 C1.500375,8.657175 1.531125,8.322675 1.576125,7.991175 L4.056375,10.885425 C3.866625,11.215425 3.750375,11.592675 3.750375,12.000675 C3.750375,12.673425 4.051125,13.269675 4.519125,13.682175 L4.119375,14.682675 C2.518875,13.306425 1.500375,11.271675 1.500375,9.000675 M2.993625,4.528425 L6.014625,5.391675 C6.088875,6.566925 7.055625,7.500675 8.250375,7.500675 C8.596875,7.500675 8.921625,7.415175 9.214875,7.275675 L10.724625,8.786175 C10.591125,9.066675 10.510125,9.377925 10.504125,9.707925 L7.765875,10.621425 C7.354125,10.094925 6.719625,9.750675 6.000375,9.750675 C5.714625,9.750675 5.443875,9.809175 5.192625,9.905925 L2.069625,6.262425 L2.004375,6.317925 C2.252625,5.673675 2.586375,5.073675 2.993625,4.528425 M10.729875,1.709925 L9.214875,3.225675 C8.921625,3.085425 8.596875,3.000675 8.250375,3.000675 C7.494375,3.000675 6.829125,3.376425 6.421125,3.947925 L4.141875,3.296925 C5.452125,2.179425 7.147125,1.500675 9.000375,1.500675 C9.595875,1.500675 10.173375,1.577925 10.729875,1.709925 M14.929125,4.424925 L13.149375,7.540425 C13.018875,7.517175 12.886875,7.500675 12.750375,7.500675 C12.403125,7.500675 12.079125,7.585425 11.785125,7.725675 L10.275375,6.215175 C10.414875,5.921925 10.500375,5.597175 10.500375,5.250675 C10.500375,4.903425 10.414875,4.579425 10.275375,4.286175 L12.289875,2.270925 C13.327125,2.780175 14.228625,3.518925 14.929125,4.424925 M16.469625,9.610425 L14.960625,9.358425 C14.888625,8.952675 14.706375,8.588925 14.448375,8.289675 L15.817875,5.893425 C16.251375,6.841425 16.500375,7.891425 16.500375,9.000675 C16.500375,9.206175 16.485375,9.408675 16.469625,9.610425 M9.000375,0.000675 C4.037625,0.000675 0.000375,4.037925 0.000375,9.000675 C0.000375,13.962675 4.037625,18.000675 9.000375,18.000675 C13.962375,18.000675 18.000375,13.962675 18.000375,9.000675 C18.000375,4.037925 13.962375,0.000675 9.000375,0.000675" id="Fill-926"></path>
            </g>
        </g>
    </g>
</svg>