<?xml version="1.0" encoding="UTF-8"?>
<svg width="15px" height="15px" viewBox="0 0 15 15" version="1.1" xmlns="http://www.w3.org/2000/svg" xmlns:xlink="http://www.w3.org/1999/xlink">
    <!-- Generator: Sketch 46.2 (44496) - http://www.bohemiancoding.com/sketch -->
    <title>Fill 734</title>
    <desc>Created with Sketch.</desc>
    <defs></defs>
    <g id="Campaigns" stroke="none" stroke-width="1" fill="none" fill-rule="evenodd">
        <g id="Campaign-Dependencies-Shipping" transform="translate(-1251.000000, -398.000000)" fill="#757575">
            <g id="Group" transform="translate(1251.000000, 396.000000)">
                <g id="Fill-734" transform="translate(0.000000, 2.000000)">
                    <path d="M13.5,13.5 L1.5,13.5 L1.5,6 L13.5,6 L13.5,13.5 Z M4.15125,1.5 L6.75,1.5 L6.75,4.5 L2.15175,4.5 L4.15125,1.5 Z M12.84825,4.5 L8.25,4.5 L8.25,1.5 L10.84875,1.5 L12.84825,4.5 Z M14.997,5.23575 C14.9955,5.14875 14.9775,5.064 14.946,4.98225 C14.93775,4.9605 14.9265,4.9425 14.91675,4.9215 C14.9025,4.893 14.89275,4.8615 14.874,4.83375 L11.874,0.33375 C11.7345,0.12525 11.5005,0 11.25,0 L3.75,0 C3.4995,0 3.2655,0.12525 3.126,0.33375 L0.126,4.83375 C0.10725,4.8615 0.0975,4.893 0.08325,4.9215 C0.0735,4.9425 0.06225,4.9605 0.054,4.98225 C0.0225,5.064 0.0045,5.14875 0.003,5.23575 C0.00225,5.241 0,5.24475 0,5.25 L0,14.25 C0,14.664 0.336,15 0.75,15 L14.25,15 C14.664,15 15,14.664 15,14.25 L15,5.25 C15,5.24475 14.99775,5.241 14.997,5.23575 L14.997,5.23575 Z"></path>
                </g>
            </g>
        </g>
    </g>
</svg>