<?xml version="1.0" encoding="UTF-8" standalone="no"?>
<svg width="22px" height="22px" viewBox="0 0 22 22" version="1.1" xmlns="http://www.w3.org/2000/svg" xmlns:xlink="http://www.w3.org/1999/xlink">
    <!-- Generator: Sketch 48.1 (47250) - http://www.bohemiancoding.com/sketch -->
    <title>Status/Overlay/Cross Red</title>
    <desc>Created with Sketch.</desc>
    <defs></defs>
    <g id="Icons" stroke="none" stroke-width="1" fill="none" fill-rule="evenodd">
        <g id="Status/Overlay/Cross-Red">
            <g id="denied-red">
                <circle id="Oval" fill="#FFFFFF" cx="11" cy="11" r="11"></circle>
                <path d="M11,3.8 C7.0301,3.8 3.8,7.0301 3.8,11 C3.8,14.9699 7.0301,18.2 11,18.2 C14.9699,18.2 18.2,14.9699 18.2,11 C18.2,7.0301 14.9699,3.8 11,3.8 M11,20 C6.0374,20 2,15.9626 2,11 C2,6.0374 6.0374,2 11,2 C15.9626,2 20,6.0374 20,11 C20,15.9626 15.9626,20 11,20" id="Fill-1340" fill="#FF5151"></path>
                <polygon id="Fill-1341" fill="#FF5151" points="15 8.20161462 13.7983854 7 11 9.79838538 8.20161462 7 7 8.20161462 9.79838538 11 7 13.7983854 8.20161462 15 11 12.2024644 13.7983854 15 15 13.7983854 12.2016146 11"></polygon>
            </g>
        </g>
    </g>
</svg>