<?xml version="1.0" encoding="UTF-8" standalone="no"?>
<svg width="12px" height="12px" viewBox="0 0 12 12" version="1.1" xmlns="http://www.w3.org/2000/svg" xmlns:xlink="http://www.w3.org/1999/xlink">
    <!-- Generator: Sketch 46.2 (44496) - http://www.bohemiancoding.com/sketch -->
    <title>Followers Sm@2x</title>
    <desc>Created with Sketch.</desc>
    <defs></defs>
    <g id="Symbols" stroke="none" stroke-width="1" fill="none" fill-rule="evenodd">
        <g id="Icons/Followers-Sm" fill="#404040">
            <g id="Followers-Sm">
                <path d="M6,1.5 C5.17275,1.5 4.5,2.172 4.5,3 C4.5,3.82725 5.17275,4.5 6,4.5 C6.82725,4.5 7.5,3.82725 7.5,3 C7.5,2.172 6.82725,1.5 6,1.5 M6,6 C4.3455,6 3,4.6545 3,3 C3,1.3455 4.3455,0 6,0 C7.6545,0 9,1.3455 9,3 C9,4.6545 7.6545,6 6,6" id="Fill-3262"></path>
                <path d="M1.619025,10.5 L10.381275,10.5 C9.932775,9.144 8.255775,8.25 5.999775,8.25 C3.743775,8.25 2.067525,9.144 1.619025,10.5 L1.619025,10.5 Z M11.999775,12 L-0.000225,12 L-0.000225,11.25 C-0.000225,8.60025 2.467275,6.75 5.999775,6.75 C9.533025,6.75 11.999775,8.60025 11.999775,11.25 L11.999775,12 Z" id="Fill-3263"></path>
            </g>
        </g>
    </g>
</svg>