<?xml version="1.0" encoding="UTF-8" standalone="no"?>
<svg width="19px" height="19px" viewBox="0 0 19 19" version="1.1" xmlns="http://www.w3.org/2000/svg" xmlns:xlink="http://www.w3.org/1999/xlink">
    <!-- Generator: Sketch 46.2 (44496) - http://www.bohemiancoding.com/sketch -->
    <title>External White</title>
    <desc>Created with Sketch.</desc>
    <defs></defs>
    <g id="Symbols" stroke="none" stroke-width="1" fill="none" fill-rule="evenodd">
        <g id="Icons/External-White" fill="#FFFFFF">
            <g id="External-White">
                <path d="M14,19 C15.103,19 16,18.103 16,17 L16,11 L14,11 L14,17 L2,17 L2,5 L8,5 L8,3 L2,3 C0.897,3 0,3.897 0,5 L0,17 C0,18.103 0.897,19 2,19 L14,19 Z" id="Fill-942"></path>
                <polygon id="Fill-943" points="12 2 15.586 2 4.293 13.293 5.707 14.707 17 3.414 17 7 19 7 19 0 12 0"></polygon>
            </g>
        </g>
    </g>
</svg>