<?xml version="1.0" encoding="utf-8"?>
<!-- Generator: Adobe Illustrator 20.0.0, SVG Export Plug-In . SVG Version: 6.00 Build 0)  -->
<svg version="1.1" id="Layer_1" xmlns="http://www.w3.org/2000/svg" xmlns:xlink="http://www.w3.org/1999/xlink" x="0px" y="0px"
   viewBox="0 0 15 15" style="enable-background:new 0 0 15 15;" xml:space="preserve">
<style type="text/css">
  .st0{fill:#404040;}
</style>
<title>logo</title>
<desc>Created with Sketch.</desc>
<g id="Wireframes">
  <g id="Campaign-List_x2F_Campaign-Activity" transform="translate(-844.000000, -136.000000)">
    <g id="card-hover" transform="translate(591.000000, 136.000000)">
      <g id="top-bar" transform="translate(2.000000, 0.000000)">
        <g id="campaign-type" transform="translate(251.000000, 0.000000)">
          <path id="logo" class="st0" d="M7.5,0C3.4,0,0,3.4,0,7.5c0,3.2,2,5.9,4.8,7c-0.1-0.6-0.1-1.5,0-2.2c0.1-0.6,0.9-3.7,0.9-3.7
            S5.4,8.2,5.4,7.5c0-1,0.6-1.8,1.4-1.8c0.6,0,0.9,0.5,0.9,1.1c0,0.6-0.4,1.6-0.6,2.5C7,10,7.5,10.6,8.2,10.6
            c1.3,0,2.4-1.4,2.4-3.4c0-1.8-1.3-3.1-3.1-3.1c-2.1,0-3.4,1.6-3.4,3.3c0,0.6,0.2,1.3,0.6,1.7c0.1,0.1,0.1,0.1,0.1,0.2
            C4.6,9.5,4.5,10,4.5,10.1c0,0.1-0.1,0.2-0.3,0.1C3.3,9.8,2.7,8.4,2.7,7.3c0-2.4,1.7-4.5,5-4.5c2.6,0,4.6,1.9,4.6,4.3
            c0,2.6-1.6,4.7-3.9,4.7c-0.8,0-1.5-0.4-1.7-0.9c0,0-0.4,1.4-0.5,1.8c-0.2,0.7-0.6,1.5-0.9,2C6,14.9,6.7,15,7.5,15
            c4.1,0,7.5-3.4,7.5-7.5S11.6,0,7.5,0"/>
        </g>
      </g>
    </g>
  </g>
</g>
</svg>
