<?xml version="1.0" encoding="UTF-8" standalone="no"?>
<svg width="27px" height="17px" viewBox="0 0 27 17" version="1.1" xmlns="http://www.w3.org/2000/svg" xmlns:xlink="http://www.w3.org/1999/xlink">
    <!-- Generator: Sketch 46 (44423) - http://www.bohemiancoding.com/sketch -->
    <title>Post to Instagram Icon</title>
    <desc>Created with Sketch.</desc>
    <defs></defs>
    <g id="Symbols" stroke="none" stroke-width="1" fill="none" fill-rule="evenodd">
        <g id="Icons/Post-to-Instagram" fill="#404040">
            <g id="Post-to-Instagram-Icon">
                <g id="Icons/Instagram" transform="translate(10.000000, 0.000000)">
                    <g id="Instagram">
                        <path d="M8.27010101,1.49014142 C10.4783283,1.49014142 10.7398712,1.49854545 11.6119217,1.53833333 C12.41825,1.57513384 12.8561465,1.70986111 13.1475959,1.82308586 C13.5335909,1.97311111 13.8091187,2.15235354 14.0985,2.44173485 C14.3878813,2.73111616 14.5671237,3.00664394 14.7171162,3.39263889 C14.8303737,3.68408838 14.965101,4.12198485 15.0019015,4.9282803 C15.0416894,5.80036364 15.0500935,6.06190656 15.0500935,8.27013384 C15.0500935,10.4783611 15.0416894,10.7399041 15.0019015,11.6119545 C14.965101,12.4182828 14.8303737,12.8561793 14.7171162,13.1476288 C14.5671237,13.5336237 14.3878813,13.8091515 14.0985,14.0985328 C13.8091187,14.3879142 13.5335909,14.5671566 13.1475959,14.717149 C12.8561465,14.8304066 12.41825,14.9651339 11.6119217,15.0019343 C10.7400026,15.0417223 10.4784596,15.0501263 8.27010101,15.0501263 C6.06174242,15.0501263 5.8001995,15.0417223 4.9282803,15.0019343 C4.12195202,14.9651339 3.68405556,14.8304066 3.39263889,14.717149 C3.00661111,14.5671566 2.73108333,14.3879142 2.44170202,14.0985328 C2.15232071,13.8091515 1.97307828,13.5336237 1.82308586,13.1476288 C1.70982828,12.8561793 1.57510101,12.4182828 1.5383005,11.6119874 C1.49851263,10.7399041 1.49010859,10.4783611 1.49010859,8.27013384 C1.49010859,6.06190656 1.49851263,5.80036364 1.5383005,4.92831313 C1.57510101,4.12198485 1.70982828,3.68408838 1.82308586,3.39263889 C1.97307828,3.00664394 2.15232071,2.73111616 2.44170202,2.44173485 C2.73108333,2.15235354 3.00661111,1.97311111 3.39263889,1.82308586 C3.68405556,1.70986111 4.12195202,1.57513384 4.92824748,1.53833333 C5.80033081,1.49854545 6.06187373,1.49014142 8.27010101,1.49014142 L8.27010101,1.49014142 Z M4.86035859,0.0497676768 C3.98006818,0.0899494947 3.37891667,0.229732323 2.85284343,0.434186869 C2.3090101,0.645535353 1.84780556,0.928318185 1.38804545,1.38807828 C0.928285357,1.84783839 0.645502525,2.30904293 0.434154041,2.85287626 C0.229699495,3.37894949 0.0899166664,3.98010101 0.0497348485,4.86039142 C0.00948737377,5.74245454 0,6.02408838 0,8.27013384 C0,10.5161793 0.00948737377,10.7978132 0.0497348485,11.6798762 C0.0899166664,12.5601667 0.229699495,13.1613182 0.434154041,13.6873914 C0.645502525,14.2311919 0.928285357,14.6924293 1.38804545,15.1521894 C1.84780556,15.6119495 2.3090101,15.8947323 2.85284343,16.1060808 C3.37891667,16.3105353 3.98006818,16.4503182 4.86035859,16.4905 C5.74245454,16.5307475 6.02405556,16.5402348 8.27010101,16.5402348 C10.5161465,16.5402348 10.7977803,16.5307475 11.6798434,16.4905 C12.5601339,16.4503182 13.1612854,16.3105353 13.6873586,16.1060808 C14.2311919,15.8947323 14.6923965,15.6119495 15.1521566,15.1521894 C15.6119166,14.6924293 15.8946995,14.2312247 16.106048,13.6873914 C16.3105025,13.1613182 16.4502853,12.5601667 16.4904672,11.6798762 C16.5307147,10.7978132 16.5402349,10.5161793 16.5402349,8.27013384 C16.5402349,6.02408838 16.5307147,5.74245454 16.4904672,4.86039142 C16.4502853,3.98010101 16.3105025,3.37894949 16.106048,2.85287626 C15.8946995,2.30904293 15.6119166,1.84783839 15.1521566,1.38807828 C14.6923965,0.928318185 14.2311919,0.645535353 13.6873586,0.434186869 C13.1612854,0.229732323 12.5601339,0.0899494947 11.6798434,0.0497676768 C10.7977803,0.00952020205 10.5161465,0 8.27010101,0 C6.02405556,0 5.74245454,0.00952020205 4.86035859,0.0497676768 L4.86035859,0.0497676768 Z" id="Fill-1"></path>
                        <path d="M8.24683081,4 C5.90138132,4 4,5.90138132 4,8.24683081 C4,10.5922803 5.90138132,12.4936616 8.24683081,12.4936616 C10.5922803,12.4936616 12.4936616,10.5922803 12.4936616,8.24683081 C12.4936616,5.90138132 10.5922803,4 8.24683081,4 L8.24683081,4 L8.24683081,4 Z M8.24683081,11.003553 C6.72435353,11.003553 5.49010858,9.76930811 5.49010858,8.24683081 C5.49010858,6.72435353 6.72435353,5.49010858 8.24683081,5.49010858 C9.76930811,5.49010858 11.003553,6.72435353 11.003553,8.24683081 C11.003553,9.76930811 9.76930811,11.003553 8.24683081,11.003553 L8.24683081,11.003553 L8.24683081,11.003553 Z" id="Fill-2"></path>
                        <path d="M12.9848308,3.99239899 C12.9848308,4.5405 12.5405328,4.98483081 11.9924318,4.98483081 C11.4443308,4.98483081 11,4.5405 11,3.99239899 C11,3.44429798 11.4443308,3 11.9924318,3 C12.5405328,3 12.9848308,3.44429798 12.9848308,3.99239899" id="Fill-3"></path>
                    </g>
                </g>
                <g id="Fill-946-+-Fill-947" transform="translate(0.000000, 4.000000)">
                    <polygon id="Fill-946" points="3.27798535 8 4.69198535 9.414 9.39898535 4.707 4.69198535 0 3.27798535 1.414 5.57098535 3.707 0 3.707 0 5.707 5.57098535 5.707"></polygon>
                </g>
            </g>
        </g>
    </g>
</svg>