<?xml version="1.0" encoding="UTF-8" standalone="no"?>
<svg width="20px" height="20px" viewBox="0 0 20 20" version="1.1" xmlns="http://www.w3.org/2000/svg" xmlns:xlink="http://www.w3.org/1999/xlink">
    <!-- Generator: Sketch 48.2 (47327) - http://www.bohemiancoding.com/sketch -->
    <title>Icon/Info Black</title>
    <desc>Created with Sketch.</desc>
    <defs></defs>
    <g id="MVP-Campaign-Brief-Builder-1" stroke="none" stroke-width="1" fill="none" fill-rule="evenodd" transform="translate(-950.000000, -569.000000)">
        <g id="Icon/Info-Blue" transform="translate(948.000000, 567.000000)">
            <g id="Frame_-_24px">
                <rect id="Rectangle-path" x="0" y="0" width="24" height="24"></rect>
            </g>
            <g id="Line_Icons" transform="translate(2.000000, 2.000000)" fill="#404040" fill-rule="nonzero">
                <g id="Group">
                    <path d="M10,20 C4.486,20 0,15.515 0,10 C0,4.487 4.486,0 10,0 C15.514,0 20,4.486 20,10 C20,15.515 15.514,20 10,20 Z M10,2 C5.589,2 2,5.589 2,10 C2,14.411 5.589,18 10,18 C14.411,18 18,14.411 18,10 C18,5.589 14.411,2 10,2 Z" id="Shape"></path>
                    <path d="M11,13 L11,9 C11,8.448 10.553,8 10,8 L8,8 L8,10 L9,10 L9,13 L7,13 L7,15 L13,15 L13,13 L11,13 Z" id="Shape"></path>
                    <circle id="Oval" cx="10" cy="6" r="1.25"></circle>
                </g>
            </g>
        </g>
    </g>
</svg>
