<?xml version="1.0" encoding="UTF-8" standalone="no"?>
<svg width="12px" height="8px" viewBox="0 0 12 8" version="1.1" xmlns="http://www.w3.org/2000/svg" xmlns:xlink="http://www.w3.org/1999/xlink">
    <!-- Generator: Sketch 48.1 (47250) - http://www.bohemiancoding.com/sketch -->
    <title>Impressions Sm</title>
    <desc>Created with Sketch.</desc>
    <defs></defs>
    <g id="Indicator/Impressions-Sm" stroke="none" stroke-width="1" fill="none" fill-rule="evenodd" transform="translate(0.000000, -2.000000)">
        <g id="Impressions-Sm" transform="translate(0.000000, 2.000000)" fill="#404040" fill-rule="nonzero">
            <g id="Line_Icons">
                <g id="Group">
                    <path d="M11.9001818,3.67142857 C11.7998182,3.52114286 9.39381818,0 6,0 C2.60618182,0 0.200181818,3.52114286 0.0998181818,3.67142857 C-0.0332727273,3.86857143 -0.0332727273,4.132 0.0998181818,4.32914286 C0.200181818,4.47885714 2.60618182,8 6,8 C9.39381818,8 11.7998182,4.47885714 11.9001818,4.32914286 C12.0332727,4.13142857 12.0332727,3.86857143 11.9001818,3.67142857 Z M6,6.85714286 C3.72763636,6.85714286 1.88236364,4.81428571 1.23763636,3.99942857 C1.88072727,3.18457143 3.72,1.14285714 6,1.14285714 C8.27236364,1.14285714 10.1176364,3.18628571 10.7623636,4.00057143 C10.1192727,4.816 8.28,6.85714286 6,6.85714286 Z" id="Shape"></path>
                    <path d="M6,1.71428571 C4.79672727,1.71428571 3.81818182,2.74 3.81818182,4 C3.81818182,5.26057143 4.79672727,6.28571429 6,6.28571429 C7.20327273,6.28571429 8.18181818,5.26057143 8.18181818,4 C8.18181818,2.74 7.20327273,1.71428571 6,1.71428571 Z M6,5.14285714 C5.39836364,5.14285714 4.90909091,4.63028571 4.90909091,4 C4.90909091,3.37028571 5.39836364,2.85714286 6,2.85714286 C6.60163636,2.85714286 7.09090909,3.37028571 7.09090909,4 C7.09090909,4.63028571 6.60163636,5.14285714 6,5.14285714 Z" id="Shape"></path>
                </g>
            </g>
        </g>
    </g>
</svg>