<?xml version="1.0" encoding="UTF-8" standalone="no"?>
<svg width="21px" height="20px" viewBox="0 0 21 20" version="1.1" xmlns="http://www.w3.org/2000/svg" xmlns:xlink="http://www.w3.org/1999/xlink">
    <!-- Generator: Sketch 48.1 (47250) - http://www.bohemiancoding.com/sketch -->
    <title>Send to Facebook Sending Icon</title>
    <desc>Created with Sketch.</desc>
    <defs></defs>
    <g id="Actions/Send-To-Facebook-Sending" stroke="none" stroke-width="1" fill="none" fill-rule="evenodd" transform="translate(-2.000000, -2.000000)">
        <g id="Send-to-Facebook-Sending-Icon" transform="translate(2.000000, 2.000000)" fill="#a5a5a5">
            <g id="Group-2" transform="translate(0.000000, 7.000000)">
                <g id="Facebook">
                    <path d="M8.27980714,6 L9.99609375,6 L11,5.02856445 C11.3431092,5.23046203 11.6764425,5.40088868 12,5.53984441 L12,12.3377462 C12,12.7035221 11.7035221,13.0003269 11.3377462,13.0003269 L8.27980714,13.0003269 L8.27980714,8.35310942 L9.83966658,8.35310942 L10.073384,6.54188118 L8.27980714,6.54188118 L8.27980714,6 Z M8,2.90343313 C7.03012066,3.15964833 6.40974095,3.95176038 6.40974095,5.20658658 L6.40974095,6.54188118 L4.84595898,6.54188118 L4.84595898,8.35310942 L6.40974095,8.35310942 L6.40974095,13.0003269 L0.66225382,13.0003269 C0.296477895,13.0003269 0,12.7035221 0,12.3377462 L0,1.6625807 C0,1.29647789 0.296477895,1 0.66225382,1 L8,1 L8,2.90343313 Z" id="Combined-Shape"></path>
                </g>
            </g>
            <g id="calendar-sync" transform="translate(9.000000, 0.000000)" fill-rule="nonzero">
                <g id="Line_Icons">
                    <g id="Group">
                        <g id="Shape">
                            <path d="M6,10 C4.923,10 3.937,9.56 3.19,8.81 L5,7 L0,7 L0,12 L1.763,10.237 C2.881,11.349 4.409,12 6,12 C9.309,12 12,9.309 12,6 L10,6 C10,8.205 8.206,10 6,10 Z"></path>
                            <path d="M10.239,1.76 C9.121,0.636 7.619,0 6,0 C2.691,0 0,2.691 0,6 L2,6 C2,3.794 3.794,2 6,2 C7.078,2 8.065,2.44 8.811,3.189 L7,5 L12,5 L12,0 L10.239,1.76 Z"></path>
                        </g>
                    </g>
                </g>
            </g>
        </g>
    </g>
</svg>
