<?xml version="1.0" encoding="UTF-8"?>
<svg width="25px" height="24px" viewBox="0 0 25 24" version="1.1" xmlns="http://www.w3.org/2000/svg" xmlns:xlink="http://www.w3.org/1999/xlink">
    <!-- Generator: Sketch 48.2 (47327) - http://www.bohemiancoding.com/sketch -->
    <title>Send to Pinterest Sending Icon</title>
    <desc>Created with Sketch.</desc>
    <defs>
        <filter x="-10.7%" y="-11.2%" width="121.4%" height="122.5%" filterUnits="objectBoundingBox" id="filter-1">
            <feOffset dx="0" dy="0" in="SourceAlpha" result="shadowOffsetOuter1"></feOffset>
            <feGaussianBlur stdDeviation="0.75" in="shadowOffsetOuter1" result="shadowBlurOuter1"></feGaussianBlur>
            <feColorMatrix values="0 0 0 0 0   0 0 0 0 0   0 0 0 0 0  0 0 0 0.23 0" type="matrix" in="shadowBlurOuter1" result="shadowMatrixOuter1"></feColorMatrix>
            <feMerge>
                <feMergeNode in="shadowMatrixOuter1"></feMergeNode>
                <feMergeNode in="SourceGraphic"></feMergeNode>
            </feMerge>
        </filter>
    </defs>
    <g id="Campaign-Assets-Pinterest-Single-Uploading" stroke="none" stroke-width="1" fill="none" fill-rule="evenodd" transform="translate(-101.000000, -417.000000)" opacity="0.5">
        <g id="Content-Actions-Overlay" transform="translate(81.000000, 237.000000)" fill="#a5a5a5">
            <g id="Group" transform="translate(20.000000, 87.000000)">
                <g id="Group-5" transform="translate(0.000000, 93.000000)">
                    <g id="Group-6">
                        <g id="Icons/Download-White">
                            <g id="Send-to-Pinterest-Sending-Icon" filter="url(#filter-1)" transform="translate(2.000000, 2.000000)">
                                <g id="Group-2" transform="translate(0.000000, 8.000000)">
                                    <g id="Pinterest">
                                        <path d="M8,0.341387635 L8,2.67382548 C7.45572057,2.38627581 6.81955794,2.2248245 6.13298182,2.2248245 C3.54360688,2.2248245 2.16854174,3.96296864 2.16854174,5.85561448 C2.16854174,6.73553846 2.63682904,7.83102909 3.38616229,8.18012936 C3.4998314,8.23273352 3.56089636,8.20955826 3.5870145,8.09956776 C3.606879,8.01643113 3.70804083,7.60884093 3.75365562,7.41939242 C3.76837007,7.35869532 3.76101284,7.30645903 3.71208731,7.24723338 C3.46414886,6.94669078 3.26550382,6.39342755 3.26550382,5.87805401 C3.26550382,4.55448944 4.26755771,3.27396462 5.97480151,3.27396462 C6.84369491,3.27396462 7.55907242,3.62305031 8,4.20390436 L8,5 L8.38837045,5 C8.44907769,5.22291068 8.48103982,5.46231479 8.48103982,5.71509151 C8.48103982,7.33809509 7.66107722,8.46264676 6.59464762,8.46264676 C6.00570185,8.46264676 5.56500414,7.97559854 5.70626284,7.37855982 C5.87547899,6.66527697 6.20324331,5.89571135 6.20324331,5.38070568 C6.20324331,4.9197756 5.95604059,4.53572852 5.44397781,4.53572852 C4.84178903,4.53572852 4.35841942,5.15851752 4.35841942,5.99282671 C4.35841942,6.52401827 4.53793569,6.88341866 4.53793569,6.88341866 C4.53793569,6.88341866 3.943472,9.39774992 3.83421722,9.86603722 C3.71355875,10.3839858 3.76101284,11.1123509 3.813617,11.5868919 C1.58143527,10.7128537 0,8.54173692 0,5.99981607 C0,2.68612244 2.6864903,0 6.00018393,0 C6.70136942,0 7.37448175,0.120299373 8,0.341387635 Z M11.7977679,4.44948596 C11.929682,4.94402463 12,5.46370711 12,5.99981607 C12,9.3135097 9.3135097,11.9996321 6.00018393,11.9996321 C5.3814414,11.9996321 4.78477055,11.9058275 4.22341436,11.7321971 C4.46804206,11.3338034 4.83369609,10.6804819 4.96943687,10.1592226 C5.04227338,9.8785445 5.34318384,8.73302474 5.34318384,8.73302474 C5.53888599,9.10603599 6.11017443,9.42202875 6.71824898,9.42202875 C8.52775819,9.42202875 9.83182612,7.75782471 9.83182612,5.69007694 C9.83182612,5.45230625 9.80854346,5.22171412 9.76397162,5 L9.99609375,5 L11,4.02856445 C11.2720694,4.18865973 11.5379921,4.3289669 11.7977679,4.44948596 Z" id="Combined-Shape"></path>
                                    </g>
                                </g>
                                <g id="calendar-sync" transform="translate(9.000000, 0.000000)" fill-rule="nonzero">
                                    <g id="Line_Icons">
                                        <g id="Group">
                                            <g id="Shape">
                                                <path d="M6,10 C4.923,10 3.937,9.56 3.19,8.81 L5,7 L0,7 L0,12 L1.763,10.237 C2.881,11.349 4.409,12 6,12 C9.309,12 12,9.309 12,6 L10,6 C10,8.205 8.206,10 6,10 Z"></path>
                                                <path d="M10.239,1.76 C9.121,0.636 7.619,0 6,0 C2.691,0 0,2.691 0,6 L2,6 C2,3.794 3.794,2 6,2 C7.078,2 8.065,2.44 8.811,3.189 L7,5 L12,5 L12,0 L10.239,1.76 Z"></path>
                                            </g>
                                        </g>
                                    </g>
                                </g>
                            </g>
                        </g>
                    </g>
                </g>
            </g>
        </g>
    </g>
</svg>
