<?xml version="1.0" encoding="UTF-8" standalone="no"?>
<svg width="18px" height="18px" viewBox="0 0 18 18" version="1.1" xmlns="http://www.w3.org/2000/svg" xmlns:xlink="http://www.w3.org/1999/xlink">
    <!-- Generator: Sketch 46.1 (44463) - http://www.bohemiancoding.com/sketch -->
    <title>Expand White</title>
    <desc>Created with Sketch.</desc>
    <defs></defs>
    <g id="Symbols" stroke="none" stroke-width="1" fill="none" fill-rule="evenodd">
        <g id="Icons/Expand-White" fill="#F7F7F7">
            <g id="Expand-White">
                <path d="M7.9971,16 L2.0001,16 L2.0001,10 L8.0001,10 L7.9971,16 Z M8.0001,8 L2.0001,8 C0.8971,8 0.0001,8.897 0.0001,10 L0.0001,16 C0.0001,17.103 0.8971,18 2.0001,18 L8.0001,18 C9.1031,18 10.0001,17.103 10.0001,16 L10.0001,10 C10.0001,8.897 9.1031,8 8.0001,8 L8.0001,8 Z" id="Fill-1015"></path>
                <path d="M2,2 L7,2 L7,0 L2,0 C0.897,0 0,0.897 0,2 L0,6 L2,6 L2,2 Z" id="Fill-1016"></path>
                <path d="M16,0 L11,0 L11,2 L16,2 L16,7 L18,7 L18,2 C18,0.897 17.103,0 16,0" id="Fill-1017"></path>
                <path d="M16,16 L12,16 L12,18 L16,18 C17.103,18 18,17.103 18,16 L18,11 L16,11 L16,16 Z" id="Fill-1018"></path>
            </g>
        </g>
    </g>
</svg>