<svg xmlns="http://www.w3.org/2000/svg" width="19" height="19" viewBox="0 0 19 19">
    <g fill="none" fill-rule="evenodd">
        <path fill="#404040" d="M15.396 15.543a.826.826 0 0 1 0 1.168.845.845 0 0 1-1.168 0l-3.537-3.537 1.168-1.168 3.537 3.537zm-8.472-.939l-2.656 1.328 1.327-2.656 7.434-7.433 1.328 1.328-7.433 7.433zM5.725 8.208c.239-.14.467-.3.668-.501.2-.201.36-.428.5-.666l1.301 1.3-1.168 1.168-1.3-1.301zM1.678 3.35c.711.309 1.295.28 1.851.253 1.464-.072 2.179.907 2.179 1.767 0 .442-.172.856-.484 1.17-.625.624-1.713.624-2.337 0-.857-.859-1.135-2.174-1.209-3.19zm14.51.66a.941.941 0 0 1 .001 1.329l-.664.664-1.328-1.328.665-.664a.96.96 0 0 1 1.326-.001zm-1.96 6.576l1.168 1.168 2.478-2.478a.825.825 0 0 0 0-1.168l-1.059-1.059.543-.542a2.597 2.597 0 0 0 0-3.665c-.979-.978-2.685-.978-3.665 0l-4.33 4.33-2.025-2.024a3.273 3.273 0 0 0-.945-2.114C5.215 1.856 4.288 1.911 3.448 1.953c-.54.027-1.058.17-1.992-.763L.266 0 .051 1.67c-.02.158-.468 3.902 1.667 6.037.571.57 1.317.893 2.115.946l2.024 2.024-1.526 1.526a.808.808 0 0 0-.154.214L1.68 17.41a.827.827 0 0 0 1.109 1.108l4.992-2.496a.826.826 0 0 0 .215-.155l1.526-1.525 3.537 3.537c.468.468 1.09.726 1.752.726.662 0 1.285-.258 1.752-.725.468-.468.726-1.09.726-1.753a2.46 2.46 0 0 0-.726-1.752l-3.537-3.538 2.62-2.62.475.475-1.894 1.894z"/>
    </g>
</svg>
